<?xml version="1.0" encoding="utf-8"?>
<!DOCTYPE svg PUBLIC "-//W3C//DTD SVG 1.1//EN" "http://www.w3.org/Graphics/SVG/1.1/DTD/svg11.dtd">
<svg version="1.1" id="Layer_1" xmlns="http://www.w3.org/2000/svg" xmlns:xlink="http://www.w3.org/1999/xlink" x="0px" y="0px"
width="2255px" height="2255px" viewBox="0 0 2255 2255" enable-background="new 0 0 2255 2255" xml:space="preserve">
<rect x="0" y="0" width="2255" height="2255" fill="rgb(255,255,255)" /><g transform="translate(110,110)"><g transform="translate(440,0) scale(0.55,0.55)"><g transform="" style="fill: rgb(0, 0, 0);">
<polygon points="100,100 50,0 50,0 0,100 "/>
</g></g><g transform="translate(715,0) scale(0.55,0.55)"><g transform="" style="fill: rgb(0, 0, 0);">
<polygon points="99.999,49.999 99.998,49.999 49.999,0 0,49.999 -0.001,49.999 -0.001,50 0,50 49.999,99.999 99.998,50 99.999,50 
	99.998,50 "/>
</g></g><g transform="translate(825,0) scale(0.55,0.55)"><g transform="" style="fill: rgb(0, 0, 0);">
<g>
	<path d="M100,34.375V0H34.375C24.87,0,16.764,3.353,10.059,10.059S0,24.87,0,34.375V100h100V34.375z"/>
</g>
</g></g><g transform="translate(880,0) scale(0.55,0.55)"><g transform="" style="fill: rgb(0, 0, 0);">
<g>
	<path d="M100,34.375c0-9.505-3.354-17.611-10.059-24.316S75.131,0,65.625,0H0v100h100V34.375z"/>
</g>
</g></g><g transform="translate(990,0) scale(0.55,0.55)"><g transform="" style="fill: rgb(0, 0, 0);">
<polygon points="99.999,49.999 99.998,49.999 49.999,0 0,49.999 -0.001,49.999 -0.001,50 0,50 49.999,99.999 99.998,50 99.999,50 
	99.998,50 "/>
</g></g><g transform="translate(1155,0) scale(0.55,0.55)"><g transform="" style="fill: rgb(0, 0, 0);">
<polygon points="99.999,49.999 99.998,49.999 49.999,0 0,49.999 -0.001,49.999 -0.001,50 0,50 49.999,99.999 99.998,50 99.999,50 
	99.998,50 "/>
</g></g><g transform="translate(1265,0) scale(0.55,0.55)"><g transform="" style="fill: rgb(0, 0, 0);">
<polygon points="99.999,49.999 99.998,49.999 49.999,0 0,49.999 -0.001,49.999 -0.001,50 0,50 49.999,99.999 99.998,50 99.999,50 
	99.998,50 "/>
</g></g><g transform="translate(1375,0) scale(0.55,0.55)"><g transform="" style="fill: rgb(0, 0, 0);">
<polygon points="100,100 50,0 50,0 0,100 "/>
</g></g><g transform="translate(1540,0) scale(0.55,0.55)"><g transform="" style="fill: rgb(0, 0, 0);">
<polygon points="99.999,49.999 99.998,49.999 49.999,0 0,49.999 -0.001,49.999 -0.001,50 0,50 49.999,99.999 99.998,50 99.999,50 
	99.998,50 "/>
</g></g><g transform="translate(440,55) scale(0.55,0.55)"><g transform="" style="fill: rgb(0, 0, 0);">
<rect width="100" height="100"/>
</g></g><g transform="translate(495,55) scale(0.55,0.55)"><g transform="" style="fill: rgb(0, 0, 0);">
<rect width="100" height="100"/>
</g></g><g transform="translate(550,55) scale(0.55,0.55)"><g transform="" style="fill: rgb(0, 0, 0);">
<g>
	<path d="M100,34.375c0-9.505-3.354-17.611-10.059-24.316S75.131,0,65.625,0H0v100h100V34.375z"/>
</g>
</g></g><g transform="translate(770,55) scale(0.55,0.55)"><g transform="" style="fill: rgb(0, 0, 0);">
<g>
	<path d="M100,34.375V0H34.375C24.87,0,16.764,3.353,10.059,10.059S0,24.87,0,34.375V100h100V34.375z"/>
</g>
</g></g><g transform="translate(825,55) scale(0.55,0.55)"><g transform="" style="fill: rgb(0, 0, 0);">
<rect width="100" height="100"/>
</g></g><g transform="translate(880,55) scale(0.55,0.55)"><g transform="" style="fill: rgb(0, 0, 0);">
<rect width="100" height="100"/>
</g></g><g transform="translate(935,55) scale(0.55,0.55)"><g transform="" style="fill: rgb(0, 0, 0);">
<g>
	<path d="M100,34.375c0-9.505-3.354-17.611-10.059-24.316S75.131,0,65.625,0H0v100h100V34.375z"/>
</g>
</g></g><g transform="translate(1045,55) scale(0.55,0.55)"><g transform="" style="fill: rgb(0, 0, 0);">
<g>
	<path d="M100,34.375V0H34.375C24.87,0,16.764,3.353,10.059,10.059S0,24.87,0,34.375V100h100V34.375z"/>
</g>
</g></g><g transform="translate(1100,55) scale(0.55,0.55)"><g transform="" style="fill: rgb(0, 0, 0);">
<g>
	<path d="M100,34.375c0-9.505-3.354-17.611-10.059-24.316S75.131,0,65.625,0H0v100h100V34.375z"/>
</g>
</g></g><g transform="translate(1375,55) scale(0.55,0.55)"><g transform="" style="fill: rgb(0, 0, 0);">
<polygon points="0,-0.001 50,99.999 50,99.999 100,-0.001 "/>
</g></g><g transform="translate(1485,55) scale(0.55,0.55)"><g transform="" style="fill: rgb(0, 0, 0);">
<polygon points="100,100 50,0 50,0 0,100 "/>
</g></g><g transform="translate(440,110) scale(0.55,0.55)"><g transform="" style="fill: rgb(0, 0, 0);">
<g>
	<path d="M100,0H0v65.625c0,9.506,3.353,17.611,10.059,24.316S24.87,100,34.375,100H100V0z"/>
</g>
</g></g><g transform="translate(495,110) scale(0.55,0.55)"><g transform="" style="fill: rgb(0, 0, 0);">
<rect width="100" height="100"/>
</g></g><g transform="translate(550,110) scale(0.55,0.55)"><g transform="" style="fill: rgb(0, 0, 0);">
<rect width="100" height="100"/>
</g></g><g transform="translate(605,110) scale(0.55,0.55)"><g transform="" style="fill: rgb(0, 0, 0);">
<rect width="100" height="100"/>
</g></g><g transform="translate(660,110) scale(0.55,0.55)"><g transform="" style="fill: rgb(0, 0, 0);">
<rect width="100" height="100"/>
</g></g><g transform="translate(715,110) scale(0.55,0.55)"><g transform="" style="fill: rgb(0, 0, 0);">
<rect width="100" height="100"/>
</g></g><g transform="translate(770,110) scale(0.55,0.55)"><g transform="" style="fill: rgb(0, 0, 0);">
<g>
	<path d="M100,0H0v100h65.625c9.506,0,17.611-3.354,24.316-10.059S100,75.131,100,65.625V0z"/>
</g>
</g></g><g transform="translate(935,110) scale(0.55,0.55)"><g transform="" style="fill: rgb(0, 0, 0);">
<polygon points="0,-0.001 50,99.999 50,99.999 100,-0.001 "/>
</g></g><g transform="translate(1045,110) scale(0.55,0.55)"><g transform="" style="fill: rgb(0, 0, 0);">
<rect width="100" height="100"/>
</g></g><g transform="translate(1100,110) scale(0.55,0.55)"><g transform="" style="fill: rgb(0, 0, 0);">
<rect width="100" height="100"/>
</g></g><g transform="translate(1155,110) scale(0.55,0.55)"><g transform="" style="fill: rgb(0, 0, 0);">
<g>
	<path d="M100,34.375c0-9.505-3.354-17.611-10.059-24.316S75.131,0,65.625,0H0v100h100V34.375z"/>
</g>
</g></g><g transform="translate(1265,110) scale(0.55,0.55)"><g transform="" style="fill: rgb(0, 0, 0);">
<polygon points="100,100 50,0 50,0 0,100 "/>
</g></g><g transform="translate(1485,110) scale(0.55,0.55)"><g transform="" style="fill: rgb(0, 0, 0);">
<rect width="100" height="100"/>
</g></g><g transform="translate(1540,110) scale(0.55,0.55)"><g transform="" style="fill: rgb(0, 0, 0);">
<polygon points="0,100 100,50 100,50 0,0 "/>
</g></g><g transform="translate(495,165) scale(0.55,0.55)"><g transform="" style="fill: rgb(0, 0, 0);">
<rect width="100" height="100"/>
</g></g><g transform="translate(550,165) scale(0.55,0.55)"><g transform="" style="fill: rgb(0, 0, 0);">
<rect width="100" height="100"/>
</g></g><g transform="translate(715,165) scale(0.55,0.55)"><g transform="" style="fill: rgb(0, 0, 0);">
<polygon points="0,-0.001 50,99.999 50,99.999 100,-0.001 "/>
</g></g><g transform="translate(990,165) scale(0.55,0.55)"><g transform="" style="fill: rgb(0, 0, 0);">
<g>
	<path d="M100,34.375V0H34.375C24.87,0,16.764,3.353,10.059,10.059S0,24.87,0,34.375V100h100V34.375z"/>
</g>
</g></g><g transform="translate(1045,165) scale(0.55,0.55)"><g transform="" style="fill: rgb(0, 0, 0);">
<rect width="100" height="100"/>
</g></g><g transform="translate(1155,165) scale(0.55,0.55)"><g transform="" style="fill: rgb(0, 0, 0);">
<g>
	<path d="M100,0H0v65.625c0,9.506,3.353,17.611,10.059,24.316S24.87,100,34.375,100H100V0z"/>
</g>
</g></g><g transform="translate(1210,165) scale(0.55,0.55)"><g transform="" style="fill: rgb(0, 0, 0);">
<rect width="100" height="100"/>
</g></g><g transform="translate(1265,165) scale(0.55,0.55)"><g transform="" style="fill: rgb(0, 0, 0);">
<rect width="100" height="100"/>
</g></g><g transform="translate(1320,165) scale(0.55,0.55)"><g transform="" style="fill: rgb(0, 0, 0);">
<rect width="100" height="100"/>
</g></g><g transform="translate(1375,165) scale(0.55,0.55)"><g transform="" style="fill: rgb(0, 0, 0);">
<rect width="100" height="100"/>
</g></g><g transform="translate(1430,165) scale(0.55,0.55)"><g transform="" style="fill: rgb(0, 0, 0);">
<rect width="100" height="100"/>
</g></g><g transform="translate(1485,165) scale(0.55,0.55)"><g transform="" style="fill: rgb(0, 0, 0);">
<g>
	<path d="M100,0H0v100h65.625c9.506,0,17.611-3.354,24.316-10.059S100,75.131,100,65.625V0z"/>
</g>
</g></g><g transform="translate(495,220) scale(0.55,0.55)"><g transform="" style="fill: rgb(0, 0, 0);">
<g>
	<path d="M100,0H0v65.625c0,9.506,3.353,17.611,10.059,24.316S24.87,100,34.375,100H100V0z"/>
</g>
</g></g><g transform="translate(550,220) scale(0.55,0.55)"><g transform="" style="fill: rgb(0, 0, 0);">
<rect width="100" height="100"/>
</g></g><g transform="translate(605,220) scale(0.55,0.55)"><g transform="" style="fill: rgb(0, 0, 0);">
<polygon points="0,100 100,50 100,50 0,0 "/>
</g></g><g transform="translate(770,220) scale(0.55,0.55)"><g transform="" style="fill: rgb(0, 0, 0);">
<g>
	<path d="M100,34.375V0H34.375C24.87,0,16.764,3.353,10.059,10.059S0,24.87,0,34.375V100h100V34.375z"/>
</g>
</g></g><g transform="translate(825,220) scale(0.55,0.55)"><g transform="" style="fill: rgb(0, 0, 0);">
<rect width="100" height="100"/>
</g></g><g transform="translate(880,220) scale(0.55,0.55)"><g transform="" style="fill: rgb(0, 0, 0);">
<rect width="100" height="100"/>
</g></g><g transform="translate(935,220) scale(0.55,0.55)"><g transform="" style="fill: rgb(0, 0, 0);">
<rect width="100" height="100"/>
</g></g><g transform="translate(990,220) scale(0.55,0.55)"><g transform="" style="fill: rgb(0, 0, 0);">
<rect width="100" height="100"/>
</g></g><g transform="translate(1045,220) scale(0.55,0.55)"><g transform="" style="fill: rgb(0, 0, 0);">
<g>
	<path d="M100,0H0v100h65.625c9.506,0,17.611-3.354,24.316-10.059S100,75.131,100,65.625V0z"/>
</g>
</g></g><g transform="translate(440,275) scale(0.55,0.55)"><g transform="" style="fill: rgb(0, 0, 0);">
<polygon points="100,100 50,0 50,0 0,100 "/>
</g></g><g transform="translate(550,275) scale(0.55,0.55)"><g transform="" style="fill: rgb(0, 0, 0);">
<rect width="100" height="100"/>
</g></g><g transform="translate(660,275) scale(0.55,0.55)"><g transform="" style="fill: rgb(0, 0, 0);">
<g>
	<path d="M100,34.375V0H34.375C24.87,0,16.764,3.353,10.059,10.059S0,24.87,0,34.375V100h100V34.375z"/>
</g>
</g></g><g transform="translate(715,275) scale(0.55,0.55)"><g transform="" style="fill: rgb(0, 0, 0);">
<rect width="100" height="100"/>
</g></g><g transform="translate(770,275) scale(0.55,0.55)"><g transform="" style="fill: rgb(0, 0, 0);">
<rect width="100" height="100"/>
</g></g><g transform="translate(825,275) scale(0.55,0.55)"><g transform="" style="fill: rgb(0, 0, 0);">
<g>
	<path d="M100,0H0v100h65.625c9.506,0,17.611-3.354,24.316-10.059S100,75.131,100,65.625V0z"/>
</g>
</g></g><g transform="translate(1100,275) scale(0.55,0.55)"><g transform="" style="fill: rgb(0, 0, 0);">
<g>
	<path d="M100,34.375V0H34.375C24.87,0,16.764,3.353,10.059,10.059S0,24.87,0,34.375V100h100V34.375z"/>
</g>
</g></g><g transform="translate(1155,275) scale(0.55,0.55)"><g transform="" style="fill: rgb(0, 0, 0);">
<rect width="100" height="100"/>
</g></g><g transform="translate(1210,275) scale(0.55,0.55)"><g transform="" style="fill: rgb(0, 0, 0);">
<g>
	<path d="M100,34.375c0-9.505-3.354-17.611-10.059-24.316S75.131,0,65.625,0H0v100h100V34.375z"/>
</g>
</g></g><g transform="translate(1485,275) scale(0.55,0.55)"><g transform="" style="fill: rgb(0, 0, 0);">
<polygon points="100,100 0,50 0,50 100,0 "/>
</g></g><g transform="translate(1540,275) scale(0.55,0.55)"><g transform="" style="fill: rgb(0, 0, 0);">
<g>
	<path d="M100,34.375c0-9.505-3.354-17.611-10.059-24.316S75.131,0,65.625,0H0v100h100V34.375z"/>
</g>
</g></g><g transform="translate(440,330) scale(0.55,0.55)"><g transform="" style="fill: rgb(0, 0, 0);">
<rect width="100" height="100"/>
</g></g><g transform="translate(550,330) scale(0.55,0.55)"><g transform="" style="fill: rgb(0, 0, 0);">
<rect width="100" height="100"/>
</g></g><g transform="translate(660,330) scale(0.55,0.55)"><g transform="" style="fill: rgb(0, 0, 0);">
<rect width="100" height="100"/>
</g></g><g transform="translate(770,330) scale(0.55,0.55)"><g transform="" style="fill: rgb(0, 0, 0);">
<polygon points="0,-0.001 50,99.999 50,99.999 100,-0.001 "/>
</g></g><g transform="translate(880,330) scale(0.55,0.55)"><g transform="" style="fill: rgb(0, 0, 0);">
<polygon points="100,100 50,0 50,0 0,100 "/>
</g></g><g transform="translate(990,330) scale(0.55,0.55)"><g transform="" style="fill: rgb(0, 0, 0);">
<polygon points="99.999,49.999 99.998,49.999 49.999,0 0,49.999 -0.001,49.999 -0.001,50 0,50 49.999,99.999 99.998,50 99.999,50 
	99.998,50 "/>
</g></g><g transform="translate(1100,330) scale(0.55,0.55)"><g transform="" style="fill: rgb(0, 0, 0);">
<polygon points="0,-0.001 50,99.999 50,99.999 100,-0.001 "/>
</g></g><g transform="translate(1210,330) scale(0.55,0.55)"><g transform="" style="fill: rgb(0, 0, 0);">
<polygon points="0,-0.001 50,99.999 50,99.999 100,-0.001 "/>
</g></g><g transform="translate(1320,330) scale(0.55,0.55)"><g transform="" style="fill: rgb(0, 0, 0);">
<polygon points="99.999,49.999 99.998,49.999 49.999,0 0,49.999 -0.001,49.999 -0.001,50 0,50 49.999,99.999 99.998,50 99.999,50 
	99.998,50 "/>
</g></g><g transform="translate(1430,330) scale(0.55,0.55)"><g transform="" style="fill: rgb(0, 0, 0);">
<polygon points="100,100 50,0 50,0 0,100 "/>
</g></g><g transform="translate(1540,330) scale(0.55,0.55)"><g transform="" style="fill: rgb(0, 0, 0);">
<rect width="100" height="100"/>
</g></g><g transform="translate(440,385) scale(0.55,0.55)"><g transform="" style="fill: rgb(0, 0, 0);">
<rect width="100" height="100"/>
</g></g><g transform="translate(550,385) scale(0.55,0.55)"><g transform="" style="fill: rgb(0, 0, 0);">
<rect width="100" height="100"/>
</g></g><g transform="translate(660,385) scale(0.55,0.55)"><g transform="" style="fill: rgb(0, 0, 0);">
<g>
	<path d="M100,0H0v65.625c0,9.506,3.353,17.611,10.059,24.316S24.87,100,34.375,100H100V0z"/>
</g>
</g></g><g transform="translate(715,385) scale(0.55,0.55)"><g transform="" style="fill: rgb(0, 0, 0);">
<polygon points="0,100 100,50 100,50 0,0 "/>
</g></g><g transform="translate(825,385) scale(0.55,0.55)"><g transform="" style="fill: rgb(0, 0, 0);">
<polygon points="100,100 0,50 0,50 100,0 "/>
</g></g><g transform="translate(880,385) scale(0.55,0.55)"><g transform="" style="fill: rgb(0, 0, 0);">
<rect width="100" height="100"/>
</g></g><g transform="translate(935,385) scale(0.55,0.55)"><g transform="" style="fill: rgb(0, 0, 0);">
<g>
	<path d="M100,34.375c0-9.505-3.354-17.611-10.059-24.316S75.131,0,65.625,0H0v100h100V34.375z"/>
</g>
</g></g><g transform="translate(1045,385) scale(0.55,0.55)"><g transform="" style="fill: rgb(0, 0, 0);">
<polygon points="99.999,49.999 99.998,49.999 49.999,0 0,49.999 -0.001,49.999 -0.001,50 0,50 49.999,99.999 99.998,50 99.999,50 
	99.998,50 "/>
</g></g><g transform="translate(1155,385) scale(0.55,0.55)"><g transform="" style="fill: rgb(0, 0, 0);">
<polygon points="99.999,49.999 99.998,49.999 49.999,0 0,49.999 -0.001,49.999 -0.001,50 0,50 49.999,99.999 99.998,50 99.999,50 
	99.998,50 "/>
</g></g><g transform="translate(1265,385) scale(0.55,0.55)"><g transform="" style="fill: rgb(0, 0, 0);">
<polygon points="99.999,49.999 99.998,49.999 49.999,0 0,49.999 -0.001,49.999 -0.001,50 0,50 49.999,99.999 99.998,50 99.999,50 
	99.998,50 "/>
</g></g><g transform="translate(1430,385) scale(0.55,0.55)"><g transform="" style="fill: rgb(0, 0, 0);">
<polygon points="0,-0.001 50,99.999 50,99.999 100,-0.001 "/>
</g></g><g transform="translate(1540,385) scale(0.55,0.55)"><g transform="" style="fill: rgb(0, 0, 0);">
<rect width="100" height="100"/>
</g></g><g transform="translate(110,440) scale(0.55,0.55)"><g transform="" style="fill: rgb(0, 0, 0);">
<g>
	<path d="M100,34.375V0H34.375C24.87,0,16.764,3.353,10.059,10.059S0,24.87,0,34.375V100h100V34.375z"/>
</g>
</g></g><g transform="translate(165,440) scale(0.55,0.55)"><g transform="" style="fill: rgb(0, 0, 0);">
<rect width="100" height="100"/>
</g></g><g transform="translate(220,440) scale(0.55,0.55)"><g transform="" style="fill: rgb(0, 0, 0);">
<g>
	<path d="M100,34.375c0-9.505-3.354-17.611-10.059-24.316S75.131,0,65.625,0H0v100h100V34.375z"/>
</g>
</g></g><g transform="translate(330,440) scale(0.55,0.55)"><g transform="" style="fill: rgb(0, 0, 0);">
<polygon points="99.999,49.999 99.998,49.999 49.999,0 0,49.999 -0.001,49.999 -0.001,50 0,50 49.999,99.999 99.998,50 99.999,50 
	99.998,50 "/>
</g></g><g transform="translate(440,440) scale(0.55,0.55)"><g transform="" style="fill: rgb(0, 0, 0);">
<rect width="100" height="100"/>
</g></g><g transform="translate(495,440) scale(0.55,0.55)"><g transform="" style="fill: rgb(0, 0, 0);">
<rect width="100" height="100"/>
</g></g><g transform="translate(550,440) scale(0.55,0.55)"><g transform="" style="fill: rgb(0, 0, 0);">
<g>
	<path d="M100,0H0v100h65.625c9.506,0,17.611-3.354,24.316-10.059S100,75.131,100,65.625V0z"/>
</g>
</g></g><g transform="translate(935,440) scale(0.55,0.55)"><g transform="" style="fill: rgb(0, 0, 0);">
<rect width="100" height="100"/>
</g></g><g transform="translate(1210,440) scale(0.55,0.55)"><g transform="" style="fill: rgb(0, 0, 0);">
<polygon points="99.999,49.999 99.998,49.999 49.999,0 0,49.999 -0.001,49.999 -0.001,50 0,50 49.999,99.999 99.998,50 99.999,50 
	99.998,50 "/>
</g></g><g transform="translate(1320,440) scale(0.55,0.55)"><g transform="" style="fill: rgb(0, 0, 0);">
<g>
	<path d="M100,34.375V0H34.375C24.87,0,16.764,3.353,10.059,10.059S0,24.87,0,34.375V100h100V34.375z"/>
</g>
</g></g><g transform="translate(1375,440) scale(0.55,0.55)"><g transform="" style="fill: rgb(0, 0, 0);">
<g>
	<path d="M100,34.375c0-9.505-3.354-17.611-10.059-24.316S75.131,0,65.625,0H0v100h100V34.375z"/>
</g>
</g></g><g transform="translate(1540,440) scale(0.55,0.55)"><g transform="" style="fill: rgb(0, 0, 0);">
<rect width="100" height="100"/>
</g></g><g transform="translate(1595,440) scale(0.55,0.55)"><g transform="" style="fill: rgb(0, 0, 0);">
<rect width="100" height="100"/>
</g></g><g transform="translate(1650,440) scale(0.55,0.55)"><g transform="" style="fill: rgb(0, 0, 0);">
<rect width="100" height="100"/>
</g></g><g transform="translate(1705,440) scale(0.55,0.55)"><g transform="" style="fill: rgb(0, 0, 0);">
<g>
	<path d="M100,34.375c0-9.505-3.354-17.611-10.059-24.316S75.131,0,65.625,0H0v100h100V34.375z"/>
</g>
</g></g><g transform="translate(1870,440) scale(0.55,0.55)"><g transform="" style="fill: rgb(0, 0, 0);">
<g>
	<path d="M100,34.375V0H34.375C24.87,0,16.764,3.353,10.059,10.059S0,24.87,0,34.375V100h100V34.375z"/>
</g>
</g></g><g transform="translate(1925,440) scale(0.55,0.55)"><g transform="" style="fill: rgb(0, 0, 0);">
<rect width="100" height="100"/>
</g></g><g transform="translate(1980,440) scale(0.55,0.55)"><g transform="" style="fill: rgb(0, 0, 0);">
<polygon points="0,100 100,50 100,50 0,0 "/>
</g></g><g transform="translate(0,495) scale(0.55,0.55)"><g transform="" style="fill: rgb(0, 0, 0);">
<g>
	<path d="M100,34.375V0H34.375C24.87,0,16.764,3.353,10.059,10.059S0,24.87,0,34.375V100h100V34.375z"/>
</g>
</g></g><g transform="translate(55,495) scale(0.55,0.55)"><g transform="" style="fill: rgb(0, 0, 0);">
<rect width="100" height="100"/>
</g></g><g transform="translate(110,495) scale(0.55,0.55)"><g transform="" style="fill: rgb(0, 0, 0);">
<rect width="100" height="100"/>
</g></g><g transform="translate(165,495) scale(0.55,0.55)"><g transform="" style="fill: rgb(0, 0, 0);">
<rect width="100" height="100"/>
</g></g><g transform="translate(220,495) scale(0.55,0.55)"><g transform="" style="fill: rgb(0, 0, 0);">
<rect width="100" height="100"/>
</g></g><g transform="translate(275,495) scale(0.55,0.55)"><g transform="" style="fill: rgb(0, 0, 0);">
<g>
	<path d="M100,34.375c0-9.505-3.354-17.611-10.059-24.316S75.131,0,65.625,0H0v100h100V34.375z"/>
</g>
</g></g><g transform="translate(440,495) scale(0.55,0.55)"><g transform="" style="fill: rgb(0, 0, 0);">
<rect width="100" height="100"/>
</g></g><g transform="translate(495,495) scale(0.55,0.55)"><g transform="" style="fill: rgb(0, 0, 0);">
<g>
	<path d="M100,0H0v100h65.625c9.506,0,17.611-3.354,24.316-10.059S100,75.131,100,65.625V0z"/>
</g>
</g></g><g transform="translate(605,495) scale(0.55,0.55)"><g transform="" style="fill: rgb(0, 0, 0);">
<polygon points="99.999,49.999 99.998,49.999 49.999,0 0,49.999 -0.001,49.999 -0.001,50 0,50 49.999,99.999 99.998,50 99.999,50 
	99.998,50 "/>
</g></g><g transform="translate(715,495) scale(0.55,0.55)"><g transform="" style="fill: rgb(0, 0, 0);">
<polygon points="100,100 0,50 0,50 100,0 "/>
</g></g><g transform="translate(770,495) scale(0.55,0.55)"><g transform="" style="fill: rgb(0, 0, 0);">
<rect width="100" height="100"/>
</g></g><g transform="translate(825,495) scale(0.55,0.55)"><g transform="" style="fill: rgb(0, 0, 0);">
<rect width="100" height="100"/>
</g></g><g transform="translate(880,495) scale(0.55,0.55)"><g transform="" style="fill: rgb(0, 0, 0);">
<rect width="100" height="100"/>
</g></g><g transform="translate(935,495) scale(0.55,0.55)"><g transform="" style="fill: rgb(0, 0, 0);">
<g>
	<path d="M100,0H0v100h65.625c9.506,0,17.611-3.354,24.316-10.059S100,75.131,100,65.625V0z"/>
</g>
</g></g><g transform="translate(1045,495) scale(0.55,0.55)"><g transform="" style="fill: rgb(0, 0, 0);">
<polygon points="100,100 0,50 0,50 100,0 "/>
</g></g><g transform="translate(1100,495) scale(0.55,0.55)"><g transform="" style="fill: rgb(0, 0, 0);">
<rect width="100" height="100"/>
</g></g><g transform="translate(1155,495) scale(0.55,0.55)"><g transform="" style="fill: rgb(0, 0, 0);">
<polygon points="0,100 100,50 100,50 0,0 "/>
</g></g><g transform="translate(1320,495) scale(0.55,0.55)"><g transform="" style="fill: rgb(0, 0, 0);">
<rect width="100" height="100"/>
</g></g><g transform="translate(1375,495) scale(0.55,0.55)"><g transform="" style="fill: rgb(0, 0, 0);">
<rect width="100" height="100"/>
</g></g><g transform="translate(1540,495) scale(0.55,0.55)"><g transform="" style="fill: rgb(0, 0, 0);">
<rect width="100" height="100"/>
</g></g><g transform="translate(1705,495) scale(0.55,0.55)"><g transform="" style="fill: rgb(0, 0, 0);">
<rect width="100" height="100"/>
</g></g><g transform="translate(1815,495) scale(0.55,0.55)"><g transform="" style="fill: rgb(0, 0, 0);">
<polygon points="100,100 0,50 0,50 100,0 "/>
</g></g><g transform="translate(1870,495) scale(0.55,0.55)"><g transform="" style="fill: rgb(0, 0, 0);">
<g>
	<path d="M100,0H0v100h65.625c9.506,0,17.611-3.354,24.316-10.059S100,75.131,100,65.625V0z"/>
</g>
</g></g><g transform="translate(0,550) scale(0.55,0.55)"><g transform="" style="fill: rgb(0, 0, 0);">
<g>
	<path d="M100,0H0v65.625c0,9.506,3.353,17.611,10.059,24.316S24.87,100,34.375,100H100V0z"/>
</g>
</g></g><g transform="translate(55,550) scale(0.55,0.55)"><g transform="" style="fill: rgb(0, 0, 0);">
<g>
	<path d="M100,0H0v100h65.625c9.506,0,17.611-3.354,24.316-10.059S100,75.131,100,65.625V0z"/>
</g>
</g></g><g transform="translate(165,550) scale(0.55,0.55)"><g transform="" style="fill: rgb(0, 0, 0);">
<g>
	<path d="M100,0H0v65.625c0,9.506,3.353,17.611,10.059,24.316S24.87,100,34.375,100H100V0z"/>
</g>
</g></g><g transform="translate(220,550) scale(0.55,0.55)"><g transform="" style="fill: rgb(0, 0, 0);">
<rect width="100" height="100"/>
</g></g><g transform="translate(275,550) scale(0.55,0.55)"><g transform="" style="fill: rgb(0, 0, 0);">
<rect width="100" height="100"/>
</g></g><g transform="translate(330,550) scale(0.55,0.55)"><g transform="" style="fill: rgb(0, 0, 0);">
<rect width="100" height="100"/>
</g></g><g transform="translate(385,550) scale(0.55,0.55)"><g transform="" style="fill: rgb(0, 0, 0);">
<rect width="100" height="100"/>
</g></g><g transform="translate(440,550) scale(0.55,0.55)"><g transform="" style="fill: rgb(0, 0, 0);">
<g>
	<path d="M100,0H0v100h65.625c9.506,0,17.611-3.354,24.316-10.059S100,75.131,100,65.625V0z"/>
</g>
</g></g><g transform="translate(550,550) scale(0.55,0.55)"><g transform="" style="fill: rgb(0, 0, 0);">
<polygon points="99.999,49.999 99.998,49.999 49.999,0 0,49.999 -0.001,49.999 -0.001,50 0,50 49.999,99.999 99.998,50 99.999,50 
	99.998,50 "/>
</g></g><g transform="translate(660,550) scale(0.55,0.55)"><g transform="" style="fill: rgb(0, 0, 0);">
<polygon points="99.999,49.999 99.998,49.999 49.999,0 0,49.999 -0.001,49.999 -0.001,50 0,50 49.999,99.999 99.998,50 99.999,50 
	99.998,50 "/>
</g></g><g transform="translate(770,550) scale(0.55,0.55)"><g transform="" style="fill: rgb(0, 0, 0);">
<g>
	<path d="M100,0H0v65.625c0,9.506,3.353,17.611,10.059,24.316S24.87,100,34.375,100H100V0z"/>
</g>
</g></g><g transform="translate(825,550) scale(0.55,0.55)"><g transform="" style="fill: rgb(0, 0, 0);">
<rect width="100" height="100"/>
</g></g><g transform="translate(880,550) scale(0.55,0.55)"><g transform="" style="fill: rgb(0, 0, 0);">
<g>
	<path d="M100,0H0v100h65.625c9.506,0,17.611-3.354,24.316-10.059S100,75.131,100,65.625V0z"/>
</g>
</g></g><g transform="translate(1100,550) scale(0.55,0.55)"><g transform="" style="fill: rgb(0, 0, 0);">
<polygon points="0,-0.001 50,99.999 50,99.999 100,-0.001 "/>
</g></g><g transform="translate(1210,550) scale(0.55,0.55)"><g transform="" style="fill: rgb(0, 0, 0);">
<polygon points="99.999,49.999 99.998,49.999 49.999,0 0,49.999 -0.001,49.999 -0.001,50 0,50 49.999,99.999 99.998,50 99.999,50 
	99.998,50 "/>
</g></g><g transform="translate(1320,550) scale(0.55,0.55)"><g transform="" style="fill: rgb(0, 0, 0);">
<g>
	<path d="M100,0H0v65.625c0,9.506,3.353,17.611,10.059,24.316S24.87,100,34.375,100H100V0z"/>
</g>
</g></g><g transform="translate(1375,550) scale(0.55,0.55)"><g transform="" style="fill: rgb(0, 0, 0);">
<rect width="100" height="100"/>
</g></g><g transform="translate(1430,550) scale(0.55,0.55)"><g transform="" style="fill: rgb(0, 0, 0);">
<rect width="100" height="100"/>
</g></g><g transform="translate(1485,550) scale(0.55,0.55)"><g transform="" style="fill: rgb(0, 0, 0);">
<rect width="100" height="100"/>
</g></g><g transform="translate(1540,550) scale(0.55,0.55)"><g transform="" style="fill: rgb(0, 0, 0);">
<g>
	<path d="M100,0H0v100h65.625c9.506,0,17.611-3.354,24.316-10.059S100,75.131,100,65.625V0z"/>
</g>
</g></g><g transform="translate(1650,550) scale(0.55,0.55)"><g transform="" style="fill: rgb(0, 0, 0);">
<g>
	<path d="M100,34.375V0H34.375C24.87,0,16.764,3.353,10.059,10.059S0,24.87,0,34.375V100h100V34.375z"/>
</g>
</g></g><g transform="translate(1705,550) scale(0.55,0.55)"><g transform="" style="fill: rgb(0, 0, 0);">
<g>
	<path d="M100,0H0v100h65.625c9.506,0,17.611-3.354,24.316-10.059S100,75.131,100,65.625V0z"/>
</g>
</g></g><g transform="translate(1925,550) scale(0.55,0.55)"><g transform="" style="fill: rgb(0, 0, 0);">
<g>
	<path d="M100,34.375V0H34.375C24.87,0,16.764,3.353,10.059,10.059S0,24.87,0,34.375V100h100V34.375z"/>
</g>
</g></g><g transform="translate(1980,550) scale(0.55,0.55)"><g transform="" style="fill: rgb(0, 0, 0);">
<polygon points="0,100 100,50 100,50 0,0 "/>
</g></g><g transform="translate(935,605) scale(0.55,0.55)"><g transform="" style="fill: rgb(0, 0, 0);">
<polygon points="100,100 50,0 50,0 0,100 "/>
</g></g><g transform="translate(1155,605) scale(0.55,0.55)"><g transform="" style="fill: rgb(0, 0, 0);">
<polygon points="99.999,49.999 99.998,49.999 49.999,0 0,49.999 -0.001,49.999 -0.001,50 0,50 49.999,99.999 99.998,50 99.999,50 
	99.998,50 "/>
</g></g><g transform="translate(1265,605) scale(0.55,0.55)"><g transform="" style="fill: rgb(0, 0, 0);">
<polygon points="100,100 50,0 50,0 0,100 "/>
</g></g><g transform="translate(1430,605) scale(0.55,0.55)"><g transform="" style="fill: rgb(0, 0, 0);">
<rect width="100" height="100"/>
</g></g><g transform="translate(1650,605) scale(0.55,0.55)"><g transform="" style="fill: rgb(0, 0, 0);">
<rect width="100" height="100"/>
</g></g><g transform="translate(1815,605) scale(0.55,0.55)"><g transform="" style="fill: rgb(0, 0, 0);">
<polygon points="100,100 50,0 50,0 0,100 "/>
</g></g><g transform="translate(1925,605) scale(0.55,0.55)"><g transform="" style="fill: rgb(0, 0, 0);">
<polygon points="0,-0.001 50,99.999 50,99.999 100,-0.001 "/>
</g></g><g transform="translate(0,660) scale(0.55,0.55)"><g transform="" style="fill: rgb(0, 0, 0);">
<g>
	<path d="M100,34.375V0H34.375C24.87,0,16.764,3.353,10.059,10.059S0,24.87,0,34.375V100h100V34.375z"/>
</g>
</g></g><g transform="translate(55,660) scale(0.55,0.55)"><g transform="" style="fill: rgb(0, 0, 0);">
<g>
	<path d="M100,34.375c0-9.505-3.354-17.611-10.059-24.316S75.131,0,65.625,0H0v100h100V34.375z"/>
</g>
</g></g><g transform="translate(165,660) scale(0.55,0.55)"><g transform="" style="fill: rgb(0, 0, 0);">
<g>
	<path d="M100,34.375V0H34.375C24.87,0,16.764,3.353,10.059,10.059S0,24.87,0,34.375V100h100V34.375z"/>
</g>
</g></g><g transform="translate(220,660) scale(0.55,0.55)"><g transform="" style="fill: rgb(0, 0, 0);">
<rect width="100" height="100"/>
</g></g><g transform="translate(275,660) scale(0.55,0.55)"><g transform="" style="fill: rgb(0, 0, 0);">
<rect width="100" height="100"/>
</g></g><g transform="translate(330,660) scale(0.55,0.55)"><g transform="" style="fill: rgb(0, 0, 0);">
<polygon points="0,100 100,50 100,50 0,0 "/>
</g></g><g transform="translate(440,660) scale(0.55,0.55)"><g transform="" style="fill: rgb(0, 0, 0);">
<polygon points="99.999,49.999 99.998,49.999 49.999,0 0,49.999 -0.001,49.999 -0.001,50 0,50 49.999,99.999 99.998,50 99.999,50 
	99.998,50 "/>
</g></g><g transform="translate(550,660) scale(0.55,0.55)"><g transform="" style="fill: rgb(0, 0, 0);">
<polygon points="100,100 0,50 0,50 100,0 "/>
</g></g><g transform="translate(605,660) scale(0.55,0.55)"><g transform="" style="fill: rgb(0, 0, 0);">
<g>
	<path d="M100,34.375c0-9.505-3.354-17.611-10.059-24.316S75.131,0,65.625,0H0v100h100V34.375z"/>
</g>
</g></g><g transform="translate(770,660) scale(0.55,0.55)"><g transform="" style="fill: rgb(0, 0, 0);">
<polygon points="99.999,49.999 99.998,49.999 49.999,0 0,49.999 -0.001,49.999 -0.001,50 0,50 49.999,99.999 99.998,50 99.999,50 
	99.998,50 "/>
</g></g><g transform="translate(880,660) scale(0.55,0.55)"><g transform="" style="fill: rgb(0, 0, 0);">
<polygon points="100,100 0,50 0,50 100,0 "/>
</g></g><g transform="translate(935,660) scale(0.55,0.55)"><g transform="" style="fill: rgb(0, 0, 0);">
<rect width="100" height="100"/>
</g></g><g transform="translate(990,660) scale(0.55,0.55)"><g transform="" style="fill: rgb(0, 0, 0);">
<rect width="100" height="100"/>
</g></g><g transform="translate(1045,660) scale(0.55,0.55)"><g transform="" style="fill: rgb(0, 0, 0);">
<rect width="100" height="100"/>
</g></g><g transform="translate(1100,660) scale(0.55,0.55)"><g transform="" style="fill: rgb(0, 0, 0);">
<polygon points="0,100 100,50 100,50 0,0 "/>
</g></g><g transform="translate(1210,660) scale(0.55,0.55)"><g transform="" style="fill: rgb(0, 0, 0);">
<polygon points="100,100 0,50 0,50 100,0 "/>
</g></g><g transform="translate(1265,660) scale(0.55,0.55)"><g transform="" style="fill: rgb(0, 0, 0);">
<g>
	<path d="M100,0H0v100h65.625c9.506,0,17.611-3.354,24.316-10.059S100,75.131,100,65.625V0z"/>
</g>
</g></g><g transform="translate(1375,660) scale(0.55,0.55)"><g transform="" style="fill: rgb(0, 0, 0);">
<g>
	<path d="M100,34.375V0H34.375C24.87,0,16.764,3.353,10.059,10.059S0,24.87,0,34.375V100h100V34.375z"/>
</g>
</g></g><g transform="translate(1430,660) scale(0.55,0.55)"><g transform="" style="fill: rgb(0, 0, 0);">
<rect width="100" height="100"/>
</g></g><g transform="translate(1485,660) scale(0.55,0.55)"><g transform="" style="fill: rgb(0, 0, 0);">
<polygon points="0,100 100,50 100,50 0,0 "/>
</g></g><g transform="translate(1595,660) scale(0.55,0.55)"><g transform="" style="fill: rgb(0, 0, 0);">
<g>
	<path d="M100,34.375V0H34.375C24.87,0,16.764,3.353,10.059,10.059S0,24.87,0,34.375V100h100V34.375z"/>
</g>
</g></g><g transform="translate(1650,660) scale(0.55,0.55)"><g transform="" style="fill: rgb(0, 0, 0);">
<g>
	<path d="M100,0H0v100h65.625c9.506,0,17.611-3.354,24.316-10.059S100,75.131,100,65.625V0z"/>
</g>
</g></g><g transform="translate(1760,660) scale(0.55,0.55)"><g transform="" style="fill: rgb(0, 0, 0);">
<polygon points="100,100 0,50 0,50 100,0 "/>
</g></g><g transform="translate(1815,660) scale(0.55,0.55)"><g transform="" style="fill: rgb(0, 0, 0);">
<rect width="100" height="100"/>
</g></g><g transform="translate(1870,660) scale(0.55,0.55)"><g transform="" style="fill: rgb(0, 0, 0);">
<g>
	<path d="M100,34.375c0-9.505-3.354-17.611-10.059-24.316S75.131,0,65.625,0H0v100h100V34.375z"/>
</g>
</g></g><g transform="translate(1980,660) scale(0.55,0.55)"><g transform="" style="fill: rgb(0, 0, 0);">
<polygon points="99.999,49.999 99.998,49.999 49.999,0 0,49.999 -0.001,49.999 -0.001,50 0,50 49.999,99.999 99.998,50 99.999,50 
	99.998,50 "/>
</g></g><g transform="translate(0,715) scale(0.55,0.55)"><g transform="" style="fill: rgb(0, 0, 0);">
<rect width="100" height="100"/>
</g></g><g transform="translate(55,715) scale(0.55,0.55)"><g transform="" style="fill: rgb(0, 0, 0);">
<g>
	<path d="M100,0H0v100h65.625c9.506,0,17.611-3.354,24.316-10.059S100,75.131,100,65.625V0z"/>
</g>
</g></g><g transform="translate(165,715) scale(0.55,0.55)"><g transform="" style="fill: rgb(0, 0, 0);">
<rect width="100" height="100"/>
</g></g><g transform="translate(220,715) scale(0.55,0.55)"><g transform="" style="fill: rgb(0, 0, 0);">
<g>
	<path d="M100,0H0v100h65.625c9.506,0,17.611-3.354,24.316-10.059S100,75.131,100,65.625V0z"/>
</g>
</g></g><g transform="translate(605,715) scale(0.55,0.55)"><g transform="" style="fill: rgb(0, 0, 0);">
<rect width="100" height="100"/>
</g></g><g transform="translate(660,715) scale(0.55,0.55)"><g transform="" style="fill: rgb(0, 0, 0);">
<polygon points="0,100 100,50 100,50 0,0 "/>
</g></g><g transform="translate(1320,715) scale(0.55,0.55)"><g transform="" style="fill: rgb(0, 0, 0);">
<g>
	<path d="M100,34.375V0H34.375C24.87,0,16.764,3.353,10.059,10.059S0,24.87,0,34.375V100h100V34.375z"/>
</g>
</g></g><g transform="translate(1375,715) scale(0.55,0.55)"><g transform="" style="fill: rgb(0, 0, 0);">
<rect width="100" height="100"/>
</g></g><g transform="translate(1430,715) scale(0.55,0.55)"><g transform="" style="fill: rgb(0, 0, 0);">
<g>
	<path d="M100,0H0v100h65.625c9.506,0,17.611-3.354,24.316-10.059S100,75.131,100,65.625V0z"/>
</g>
</g></g><g transform="translate(1540,715) scale(0.55,0.55)"><g transform="" style="fill: rgb(0, 0, 0);">
<g>
	<path d="M100,34.375V0H34.375C24.87,0,16.764,3.353,10.059,10.059S0,24.87,0,34.375V100h100V34.375z"/>
</g>
</g></g><g transform="translate(1595,715) scale(0.55,0.55)"><g transform="" style="fill: rgb(0, 0, 0);">
<rect width="100" height="100"/>
</g></g><g transform="translate(1705,715) scale(0.55,0.55)"><g transform="" style="fill: rgb(0, 0, 0);">
<polygon points="100,100 50,0 50,0 0,100 "/>
</g></g><g transform="translate(1815,715) scale(0.55,0.55)"><g transform="" style="fill: rgb(0, 0, 0);">
<rect width="100" height="100"/>
</g></g><g transform="translate(1870,715) scale(0.55,0.55)"><g transform="" style="fill: rgb(0, 0, 0);">
<g>
	<path d="M100,0H0v100h65.625c9.506,0,17.611-3.354,24.316-10.059S100,75.131,100,65.625V0z"/>
</g>
</g></g><g transform="translate(0,770) scale(0.55,0.55)"><g transform="" style="fill: rgb(0, 0, 0);">
<polygon points="0,-0.001 50,99.999 50,99.999 100,-0.001 "/>
</g></g><g transform="translate(165,770) scale(0.55,0.55)"><g transform="" style="fill: rgb(0, 0, 0);">
<polygon points="0,-0.001 50,99.999 50,99.999 100,-0.001 "/>
</g></g><g transform="translate(275,770) scale(0.55,0.55)"><g transform="" style="fill: rgb(0, 0, 0);">
<g>
	<path d="M100,34.375V0H34.375C24.87,0,16.764,3.353,10.059,10.059S0,24.87,0,34.375V100h100V34.375z"/>
</g>
</g></g><g transform="translate(330,770) scale(0.55,0.55)"><g transform="" style="fill: rgb(0, 0, 0);">
<rect width="100" height="100"/>
</g></g><g transform="translate(385,770) scale(0.55,0.55)"><g transform="" style="fill: rgb(0, 0, 0);">
<g>
	<path d="M100,34.375c0-9.505-3.354-17.611-10.059-24.316S75.131,0,65.625,0H0v100h100V34.375z"/>
</g>
</g></g><g transform="translate(495,770) scale(0.55,0.55)"><g transform="" style="fill: rgb(0, 0, 0);">
<polygon points="100,100 50,0 50,0 0,100 "/>
</g></g><g transform="translate(605,770) scale(0.55,0.55)"><g transform="" style="fill: rgb(0, 0, 0);">
<polygon points="0,-0.001 50,99.999 50,99.999 100,-0.001 "/>
</g></g><g transform="translate(1320,770) scale(0.55,0.55)"><g transform="" style="fill: rgb(0, 0, 0);">
<rect width="100" height="100"/>
</g></g><g transform="translate(1485,770) scale(0.55,0.55)"><g transform="" style="fill: rgb(0, 0, 0);">
<polygon points="100,100 0,50 0,50 100,0 "/>
</g></g><g transform="translate(1540,770) scale(0.55,0.55)"><g transform="" style="fill: rgb(0, 0, 0);">
<rect width="100" height="100"/>
</g></g><g transform="translate(1595,770) scale(0.55,0.55)"><g transform="" style="fill: rgb(0, 0, 0);">
<g>
	<path d="M100,0H0v100h65.625c9.506,0,17.611-3.354,24.316-10.059S100,75.131,100,65.625V0z"/>
</g>
</g></g><g transform="translate(1705,770) scale(0.55,0.55)"><g transform="" style="fill: rgb(0, 0, 0);">
<rect width="100" height="100"/>
</g></g><g transform="translate(1760,770) scale(0.55,0.55)"><g transform="" style="fill: rgb(0, 0, 0);">
<rect width="100" height="100"/>
</g></g><g transform="translate(1815,770) scale(0.55,0.55)"><g transform="" style="fill: rgb(0, 0, 0);">
<g>
	<path d="M100,0H0v100h65.625c9.506,0,17.611-3.354,24.316-10.059S100,75.131,100,65.625V0z"/>
</g>
</g></g><g transform="translate(1980,770) scale(0.55,0.55)"><g transform="" style="fill: rgb(0, 0, 0);">
<polygon points="99.999,49.999 99.998,49.999 49.999,0 0,49.999 -0.001,49.999 -0.001,50 0,50 49.999,99.999 99.998,50 99.999,50 
	99.998,50 "/>
</g></g><g transform="translate(55,825) scale(0.55,0.55)"><g transform="" style="fill: rgb(0, 0, 0);">
<polygon points="100,100 50,0 50,0 0,100 "/>
</g></g><g transform="translate(220,825) scale(0.55,0.55)"><g transform="" style="fill: rgb(0, 0, 0);">
<polygon points="100,100 0,50 0,50 100,0 "/>
</g></g><g transform="translate(275,825) scale(0.55,0.55)"><g transform="" style="fill: rgb(0, 0, 0);">
<rect width="100" height="100"/>
</g></g><g transform="translate(385,825) scale(0.55,0.55)"><g transform="" style="fill: rgb(0, 0, 0);">
<polygon points="0,-0.001 50,99.999 50,99.999 100,-0.001 "/>
</g></g><g transform="translate(495,825) scale(0.55,0.55)"><g transform="" style="fill: rgb(0, 0, 0);">
<g>
	<path d="M100,0H0v65.625c0,9.506,3.353,17.611,10.059,24.316S24.87,100,34.375,100H100V0z"/>
</g>
</g></g><g transform="translate(550,825) scale(0.55,0.55)"><g transform="" style="fill: rgb(0, 0, 0);">
<g>
	<path d="M100,34.375c0-9.505-3.354-17.611-10.059-24.316S75.131,0,65.625,0H0v100h100V34.375z"/>
</g>
</g></g><g transform="translate(1320,825) scale(0.55,0.55)"><g transform="" style="fill: rgb(0, 0, 0);">
<polygon points="0,-0.001 50,99.999 50,99.999 100,-0.001 "/>
</g></g><g transform="translate(1430,825) scale(0.55,0.55)"><g transform="" style="fill: rgb(0, 0, 0);">
<polygon points="100,100 50,0 50,0 0,100 "/>
</g></g><g transform="translate(1540,825) scale(0.55,0.55)"><g transform="" style="fill: rgb(0, 0, 0);">
<polygon points="0,-0.001 50,99.999 50,99.999 100,-0.001 "/>
</g></g><g transform="translate(1705,825) scale(0.55,0.55)"><g transform="" style="fill: rgb(0, 0, 0);">
<g>
	<path d="M100,0H0v65.625c0,9.506,3.353,17.611,10.059,24.316S24.87,100,34.375,100H100V0z"/>
</g>
</g></g><g transform="translate(1760,825) scale(0.55,0.55)"><g transform="" style="fill: rgb(0, 0, 0);">
<rect width="100" height="100"/>
</g></g><g transform="translate(1925,825) scale(0.55,0.55)"><g transform="" style="fill: rgb(0, 0, 0);">
<polygon points="100,100 50,0 50,0 0,100 "/>
</g></g><g transform="translate(55,880) scale(0.55,0.55)"><g transform="" style="fill: rgb(0, 0, 0);">
<rect width="100" height="100"/>
</g></g><g transform="translate(110,880) scale(0.55,0.55)"><g transform="" style="fill: rgb(0, 0, 0);">
<polygon points="0,100 100,50 100,50 0,0 "/>
</g></g><g transform="translate(275,880) scale(0.55,0.55)"><g transform="" style="fill: rgb(0, 0, 0);">
<g>
	<path d="M100,0H0v65.625c0,9.506,3.353,17.611,10.059,24.316S24.87,100,34.375,100H100V0z"/>
</g>
</g></g><g transform="translate(330,880) scale(0.55,0.55)"><g transform="" style="fill: rgb(0, 0, 0);">
<polygon points="0,100 100,50 100,50 0,0 "/>
</g></g><g transform="translate(550,880) scale(0.55,0.55)"><g transform="" style="fill: rgb(0, 0, 0);">
<rect width="100" height="100"/>
</g></g><g transform="translate(605,880) scale(0.55,0.55)"><g transform="" style="fill: rgb(0, 0, 0);">
<polygon points="0,100 100,50 100,50 0,0 "/>
</g></g><g transform="translate(1375,880) scale(0.55,0.55)"><g transform="" style="fill: rgb(0, 0, 0);">
<polygon points="100,100 0,50 0,50 100,0 "/>
</g></g><g transform="translate(1430,880) scale(0.55,0.55)"><g transform="" style="fill: rgb(0, 0, 0);">
<g>
	<path d="M100,0H0v100h65.625c9.506,0,17.611-3.354,24.316-10.059S100,75.131,100,65.625V0z"/>
</g>
</g></g><g transform="translate(1595,880) scale(0.55,0.55)"><g transform="" style="fill: rgb(0, 0, 0);">
<polygon points="100,100 0,50 0,50 100,0 "/>
</g></g><g transform="translate(1650,880) scale(0.55,0.55)"><g transform="" style="fill: rgb(0, 0, 0);">
<polygon points="0,100 100,50 100,50 0,0 "/>
</g></g><g transform="translate(1760,880) scale(0.55,0.55)"><g transform="" style="fill: rgb(0, 0, 0);">
<polygon points="0,-0.001 50,99.999 50,99.999 100,-0.001 "/>
</g></g><g transform="translate(1870,880) scale(0.55,0.55)"><g transform="" style="fill: rgb(0, 0, 0);">
<g>
	<path d="M100,34.375V0H34.375C24.87,0,16.764,3.353,10.059,10.059S0,24.87,0,34.375V100h100V34.375z"/>
</g>
</g></g><g transform="translate(1925,880) scale(0.55,0.55)"><g transform="" style="fill: rgb(0, 0, 0);">
<rect width="100" height="100"/>
</g></g><g transform="translate(1980,880) scale(0.55,0.55)"><g transform="" style="fill: rgb(0, 0, 0);">
<polygon points="0,100 100,50 100,50 0,0 "/>
</g></g><g transform="translate(0,935) scale(0.55,0.55)"><g transform="" style="fill: rgb(0, 0, 0);">
<polygon points="100,100 0,50 0,50 100,0 "/>
</g></g><g transform="translate(55,935) scale(0.55,0.55)"><g transform="" style="fill: rgb(0, 0, 0);">
<rect width="100" height="100"/>
</g></g><g transform="translate(165,935) scale(0.55,0.55)"><g transform="" style="fill: rgb(0, 0, 0);">
<polygon points="100,100 0,50 0,50 100,0 "/>
</g></g><g transform="translate(220,935) scale(0.55,0.55)"><g transform="" style="fill: rgb(0, 0, 0);">
<g>
	<path d="M100,34.375c0-9.505-3.354-17.611-10.059-24.316S75.131,0,65.625,0H0v100h100V34.375z"/>
</g>
</g></g><g transform="translate(385,935) scale(0.55,0.55)"><g transform="" style="fill: rgb(0, 0, 0);">
<g>
	<path d="M100,34.375V0H34.375C24.87,0,16.764,3.353,10.059,10.059S0,24.87,0,34.375V100h100V34.375z"/>
</g>
</g></g><g transform="translate(440,935) scale(0.55,0.55)"><g transform="" style="fill: rgb(0, 0, 0);">
<polygon points="0,100 100,50 100,50 0,0 "/>
</g></g><g transform="translate(550,935) scale(0.55,0.55)"><g transform="" style="fill: rgb(0, 0, 0);">
<rect width="100" height="100"/>
</g></g><g transform="translate(660,935) scale(0.55,0.55)"><g transform="" style="fill: rgb(0, 0, 0);">
<polygon points="100,100 50,0 50,0 0,100 "/>
</g></g><g transform="translate(1540,935) scale(0.55,0.55)"><g transform="" style="fill: rgb(0, 0, 0);">
<polygon points="100,100 50,0 50,0 0,100 "/>
</g></g><g transform="translate(1705,935) scale(0.55,0.55)"><g transform="" style="fill: rgb(0, 0, 0);">
<polygon points="100,100 50,0 50,0 0,100 "/>
</g></g><g transform="translate(1870,935) scale(0.55,0.55)"><g transform="" style="fill: rgb(0, 0, 0);">
<rect width="100" height="100"/>
</g></g><g transform="translate(55,990) scale(0.55,0.55)"><g transform="" style="fill: rgb(0, 0, 0);">
<rect width="100" height="100"/>
</g></g><g transform="translate(110,990) scale(0.55,0.55)"><g transform="" style="fill: rgb(0, 0, 0);">
<g>
	<path d="M100,34.375c0-9.505-3.354-17.611-10.059-24.316S75.131,0,65.625,0H0v100h100V34.375z"/>
</g>
</g></g><g transform="translate(220,990) scale(0.55,0.55)"><g transform="" style="fill: rgb(0, 0, 0);">
<rect width="100" height="100"/>
</g></g><g transform="translate(330,990) scale(0.55,0.55)"><g transform="" style="fill: rgb(0, 0, 0);">
<polygon points="100,100 0,50 0,50 100,0 "/>
</g></g><g transform="translate(385,990) scale(0.55,0.55)"><g transform="" style="fill: rgb(0, 0, 0);">
<g>
	<path d="M100,0H0v100h65.625c9.506,0,17.611-3.354,24.316-10.059S100,75.131,100,65.625V0z"/>
</g>
</g></g><g transform="translate(550,990) scale(0.55,0.55)"><g transform="" style="fill: rgb(0, 0, 0);">
<g>
	<path d="M100,0H0v65.625c0,9.506,3.353,17.611,10.059,24.316S24.87,100,34.375,100H100V0z"/>
</g>
</g></g><g transform="translate(605,990) scale(0.55,0.55)"><g transform="" style="fill: rgb(0, 0, 0);">
<rect width="100" height="100"/>
</g></g><g transform="translate(660,990) scale(0.55,0.55)"><g transform="" style="fill: rgb(0, 0, 0);">
<rect width="100" height="100"/>
</g></g><g transform="translate(1430,990) scale(0.55,0.55)"><g transform="" style="fill: rgb(0, 0, 0);">
<g>
	<path d="M100,34.375V0H34.375C24.87,0,16.764,3.353,10.059,10.059S0,24.87,0,34.375V100h100V34.375z"/>
</g>
</g></g><g transform="translate(1485,990) scale(0.55,0.55)"><g transform="" style="fill: rgb(0, 0, 0);">
<rect width="100" height="100"/>
</g></g><g transform="translate(1540,990) scale(0.55,0.55)"><g transform="" style="fill: rgb(0, 0, 0);">
<rect width="100" height="100"/>
</g></g><g transform="translate(1705,990) scale(0.55,0.55)"><g transform="" style="fill: rgb(0, 0, 0);">
<polygon points="0,-0.001 50,99.999 50,99.999 100,-0.001 "/>
</g></g><g transform="translate(1815,990) scale(0.55,0.55)"><g transform="" style="fill: rgb(0, 0, 0);">
<polygon points="100,100 0,50 0,50 100,0 "/>
</g></g><g transform="translate(1870,990) scale(0.55,0.55)"><g transform="" style="fill: rgb(0, 0, 0);">
<rect width="100" height="100"/>
</g></g><g transform="translate(1925,990) scale(0.55,0.55)"><g transform="" style="fill: rgb(0, 0, 0);">
<rect width="100" height="100"/>
</g></g><g transform="translate(1980,990) scale(0.55,0.55)"><g transform="" style="fill: rgb(0, 0, 0);">
<polygon points="0,100 100,50 100,50 0,0 "/>
</g></g><g transform="translate(55,1045) scale(0.55,0.55)"><g transform="" style="fill: rgb(0, 0, 0);">
<rect width="100" height="100"/>
</g></g><g transform="translate(110,1045) scale(0.55,0.55)"><g transform="" style="fill: rgb(0, 0, 0);">
<rect width="100" height="100"/>
</g></g><g transform="translate(165,1045) scale(0.55,0.55)"><g transform="" style="fill: rgb(0, 0, 0);">
<rect width="100" height="100"/>
</g></g><g transform="translate(220,1045) scale(0.55,0.55)"><g transform="" style="fill: rgb(0, 0, 0);">
<rect width="100" height="100"/>
</g></g><g transform="translate(440,1045) scale(0.55,0.55)"><g transform="" style="fill: rgb(0, 0, 0);">
<g>
	<path d="M100,34.375V0H34.375C24.87,0,16.764,3.353,10.059,10.059S0,24.87,0,34.375V100h100V34.375z"/>
</g>
</g></g><g transform="translate(495,1045) scale(0.55,0.55)"><g transform="" style="fill: rgb(0, 0, 0);">
<polygon points="0,100 100,50 100,50 0,0 "/>
</g></g><g transform="translate(660,1045) scale(0.55,0.55)"><g transform="" style="fill: rgb(0, 0, 0);">
<polygon points="0,-0.001 50,99.999 50,99.999 100,-0.001 "/>
</g></g><g transform="translate(1430,1045) scale(0.55,0.55)"><g transform="" style="fill: rgb(0, 0, 0);">
<rect width="100" height="100"/>
</g></g><g transform="translate(1485,1045) scale(0.55,0.55)"><g transform="" style="fill: rgb(0, 0, 0);">
<rect width="100" height="100"/>
</g></g><g transform="translate(1540,1045) scale(0.55,0.55)"><g transform="" style="fill: rgb(0, 0, 0);">
<rect width="100" height="100"/>
</g></g><g transform="translate(1595,1045) scale(0.55,0.55)"><g transform="" style="fill: rgb(0, 0, 0);">
<rect width="100" height="100"/>
</g></g><g transform="translate(1650,1045) scale(0.55,0.55)"><g transform="" style="fill: rgb(0, 0, 0);">
<g>
	<path d="M100,34.375c0-9.505-3.354-17.611-10.059-24.316S75.131,0,65.625,0H0v100h100V34.375z"/>
</g>
</g></g><g transform="translate(1760,1045) scale(0.55,0.55)"><g transform="" style="fill: rgb(0, 0, 0);">
<polygon points="100,100 50,0 50,0 0,100 "/>
</g></g><g transform="translate(0,1100) scale(0.55,0.55)"><g transform="" style="fill: rgb(0, 0, 0);">
<g>
	<path d="M100,34.375V0H34.375C24.87,0,16.764,3.353,10.059,10.059S0,24.87,0,34.375V100h100V34.375z"/>
</g>
</g></g><g transform="translate(55,1100) scale(0.55,0.55)"><g transform="" style="fill: rgb(0, 0, 0);">
<rect width="100" height="100"/>
</g></g><g transform="translate(110,1100) scale(0.55,0.55)"><g transform="" style="fill: rgb(0, 0, 0);">
<rect width="100" height="100"/>
</g></g><g transform="translate(165,1100) scale(0.55,0.55)"><g transform="" style="fill: rgb(0, 0, 0);">
<rect width="100" height="100"/>
</g></g><g transform="translate(220,1100) scale(0.55,0.55)"><g transform="" style="fill: rgb(0, 0, 0);">
<rect width="100" height="100"/>
</g></g><g transform="translate(275,1100) scale(0.55,0.55)"><g transform="" style="fill: rgb(0, 0, 0);">
<rect width="100" height="100"/>
</g></g><g transform="translate(330,1100) scale(0.55,0.55)"><g transform="" style="fill: rgb(0, 0, 0);">
<rect width="100" height="100"/>
</g></g><g transform="translate(385,1100) scale(0.55,0.55)"><g transform="" style="fill: rgb(0, 0, 0);">
<rect width="100" height="100"/>
</g></g><g transform="translate(440,1100) scale(0.55,0.55)"><g transform="" style="fill: rgb(0, 0, 0);">
<g>
	<path d="M100,0H0v100h65.625c9.506,0,17.611-3.354,24.316-10.059S100,75.131,100,65.625V0z"/>
</g>
</g></g><g transform="translate(550,1100) scale(0.55,0.55)"><g transform="" style="fill: rgb(0, 0, 0);">
<polygon points="100,100 0,50 0,50 100,0 "/>
</g></g><g transform="translate(605,1100) scale(0.55,0.55)"><g transform="" style="fill: rgb(0, 0, 0);">
<g>
	<path d="M100,34.375c0-9.505-3.354-17.611-10.059-24.316S75.131,0,65.625,0H0v100h100V34.375z"/>
</g>
</g></g><g transform="translate(1320,1100) scale(0.55,0.55)"><g transform="" style="fill: rgb(0, 0, 0);">
<polygon points="100,100 0,50 0,50 100,0 "/>
</g></g><g transform="translate(1375,1100) scale(0.55,0.55)"><g transform="" style="fill: rgb(0, 0, 0);">
<rect width="100" height="100"/>
</g></g><g transform="translate(1430,1100) scale(0.55,0.55)"><g transform="" style="fill: rgb(0, 0, 0);">
<rect width="100" height="100"/>
</g></g><g transform="translate(1485,1100) scale(0.55,0.55)"><g transform="" style="fill: rgb(0, 0, 0);">
<g>
	<path d="M100,0H0v100h65.625c9.506,0,17.611-3.354,24.316-10.059S100,75.131,100,65.625V0z"/>
</g>
</g></g><g transform="translate(1595,1100) scale(0.55,0.55)"><g transform="" style="fill: rgb(0, 0, 0);">
<g>
	<path d="M100,0H0v65.625c0,9.506,3.353,17.611,10.059,24.316S24.87,100,34.375,100H100V0z"/>
</g>
</g></g><g transform="translate(1650,1100) scale(0.55,0.55)"><g transform="" style="fill: rgb(0, 0, 0);">
<rect width="100" height="100"/>
</g></g><g transform="translate(1705,1100) scale(0.55,0.55)"><g transform="" style="fill: rgb(0, 0, 0);">
<rect width="100" height="100"/>
</g></g><g transform="translate(1760,1100) scale(0.55,0.55)"><g transform="" style="fill: rgb(0, 0, 0);">
<rect width="100" height="100"/>
</g></g><g transform="translate(1815,1100) scale(0.55,0.55)"><g transform="" style="fill: rgb(0, 0, 0);">
<rect width="100" height="100"/>
</g></g><g transform="translate(1870,1100) scale(0.55,0.55)"><g transform="" style="fill: rgb(0, 0, 0);">
<g>
	<path d="M100,34.375c0-9.505-3.354-17.611-10.059-24.316S75.131,0,65.625,0H0v100h100V34.375z"/>
</g>
</g></g><g transform="translate(0,1155) scale(0.55,0.55)"><g transform="" style="fill: rgb(0, 0, 0);">
<rect width="100" height="100"/>
</g></g><g transform="translate(55,1155) scale(0.55,0.55)"><g transform="" style="fill: rgb(0, 0, 0);">
<rect width="100" height="100"/>
</g></g><g transform="translate(275,1155) scale(0.55,0.55)"><g transform="" style="fill: rgb(0, 0, 0);">
<polygon points="0,-0.001 50,99.999 50,99.999 100,-0.001 "/>
</g></g><g transform="translate(495,1155) scale(0.55,0.55)"><g transform="" style="fill: rgb(0, 0, 0);">
<polygon points="100,100 50,0 50,0 0,100 "/>
</g></g><g transform="translate(605,1155) scale(0.55,0.55)"><g transform="" style="fill: rgb(0, 0, 0);">
<polygon points="0,-0.001 50,99.999 50,99.999 100,-0.001 "/>
</g></g><g transform="translate(1375,1155) scale(0.55,0.55)"><g transform="" style="fill: rgb(0, 0, 0);">
<rect width="100" height="100"/>
</g></g><g transform="translate(1430,1155) scale(0.55,0.55)"><g transform="" style="fill: rgb(0, 0, 0);">
<rect width="100" height="100"/>
</g></g><g transform="translate(1705,1155) scale(0.55,0.55)"><g transform="" style="fill: rgb(0, 0, 0);">
<polygon points="0,-0.001 50,99.999 50,99.999 100,-0.001 "/>
</g></g><g transform="translate(1870,1155) scale(0.55,0.55)"><g transform="" style="fill: rgb(0, 0, 0);">
<rect width="100" height="100"/>
</g></g><g transform="translate(1925,1155) scale(0.55,0.55)"><g transform="" style="fill: rgb(0, 0, 0);">
<g>
	<path d="M100,34.375c0-9.505-3.354-17.611-10.059-24.316S75.131,0,65.625,0H0v100h100V34.375z"/>
</g>
</g></g><g transform="translate(0,1210) scale(0.55,0.55)"><g transform="" style="fill: rgb(0, 0, 0);">
<g>
	<path d="M100,0H0v65.625c0,9.506,3.353,17.611,10.059,24.316S24.87,100,34.375,100H100V0z"/>
</g>
</g></g><g transform="translate(55,1210) scale(0.55,0.55)"><g transform="" style="fill: rgb(0, 0, 0);">
<g>
	<path d="M100,0H0v100h65.625c9.506,0,17.611-3.354,24.316-10.059S100,75.131,100,65.625V0z"/>
</g>
</g></g><g transform="translate(165,1210) scale(0.55,0.55)"><g transform="" style="fill: rgb(0, 0, 0);">
<polygon points="99.999,49.999 99.998,49.999 49.999,0 0,49.999 -0.001,49.999 -0.001,50 0,50 49.999,99.999 99.998,50 99.999,50 
	99.998,50 "/>
</g></g><g transform="translate(330,1210) scale(0.55,0.55)"><g transform="" style="fill: rgb(0, 0, 0);">
<polygon points="99.999,49.999 99.998,49.999 49.999,0 0,49.999 -0.001,49.999 -0.001,50 0,50 49.999,99.999 99.998,50 99.999,50 
	99.998,50 "/>
</g></g><g transform="translate(440,1210) scale(0.55,0.55)"><g transform="" style="fill: rgb(0, 0, 0);">
<polygon points="100,100 0,50 0,50 100,0 "/>
</g></g><g transform="translate(495,1210) scale(0.55,0.55)"><g transform="" style="fill: rgb(0, 0, 0);">
<rect width="100" height="100"/>
</g></g><g transform="translate(1375,1210) scale(0.55,0.55)"><g transform="" style="fill: rgb(0, 0, 0);">
<g>
	<path d="M100,0H0v65.625c0,9.506,3.353,17.611,10.059,24.316S24.87,100,34.375,100H100V0z"/>
</g>
</g></g><g transform="translate(1430,1210) scale(0.55,0.55)"><g transform="" style="fill: rgb(0, 0, 0);">
<rect width="100" height="100"/>
</g></g><g transform="translate(1485,1210) scale(0.55,0.55)"><g transform="" style="fill: rgb(0, 0, 0);">
<polygon points="0,100 100,50 100,50 0,0 "/>
</g></g><g transform="translate(1595,1210) scale(0.55,0.55)"><g transform="" style="fill: rgb(0, 0, 0);">
<polygon points="100,100 50,0 50,0 0,100 "/>
</g></g><g transform="translate(1870,1210) scale(0.55,0.55)"><g transform="" style="fill: rgb(0, 0, 0);">
<g>
	<path d="M100,0H0v65.625c0,9.506,3.353,17.611,10.059,24.316S24.87,100,34.375,100H100V0z"/>
</g>
</g></g><g transform="translate(1925,1210) scale(0.55,0.55)"><g transform="" style="fill: rgb(0, 0, 0);">
<rect width="100" height="100"/>
</g></g><g transform="translate(1980,1210) scale(0.55,0.55)"><g transform="" style="fill: rgb(0, 0, 0);">
<g>
	<path d="M100,34.375c0-9.505-3.354-17.611-10.059-24.316S75.131,0,65.625,0H0v100h100V34.375z"/>
</g>
</g></g><g transform="translate(110,1265) scale(0.55,0.55)"><g transform="" style="fill: rgb(0, 0, 0);">
<polygon points="99.999,49.999 99.998,49.999 49.999,0 0,49.999 -0.001,49.999 -0.001,50 0,50 49.999,99.999 99.998,50 99.999,50 
	99.998,50 "/>
</g></g><g transform="translate(220,1265) scale(0.55,0.55)"><g transform="" style="fill: rgb(0, 0, 0);">
<polygon points="100,100 0,50 0,50 100,0 "/>
</g></g><g transform="translate(275,1265) scale(0.55,0.55)"><g transform="" style="fill: rgb(0, 0, 0);">
<g>
	<path d="M100,34.375c0-9.505-3.354-17.611-10.059-24.316S75.131,0,65.625,0H0v100h100V34.375z"/>
</g>
</g></g><g transform="translate(495,1265) scale(0.55,0.55)"><g transform="" style="fill: rgb(0, 0, 0);">
<polygon points="0,-0.001 50,99.999 50,99.999 100,-0.001 "/>
</g></g><g transform="translate(660,1265) scale(0.55,0.55)"><g transform="" style="fill: rgb(0, 0, 0);">
<polygon points="99.999,49.999 99.998,49.999 49.999,0 0,49.999 -0.001,49.999 -0.001,50 0,50 49.999,99.999 99.998,50 99.999,50 
	99.998,50 "/>
</g></g><g transform="translate(1430,1265) scale(0.55,0.55)"><g transform="" style="fill: rgb(0, 0, 0);">
<polygon points="0,-0.001 50,99.999 50,99.999 100,-0.001 "/>
</g></g><g transform="translate(1595,1265) scale(0.55,0.55)"><g transform="" style="fill: rgb(0, 0, 0);">
<rect width="100" height="100"/>
</g></g><g transform="translate(1650,1265) scale(0.55,0.55)"><g transform="" style="fill: rgb(0, 0, 0);">
<rect width="100" height="100"/>
</g></g><g transform="translate(1705,1265) scale(0.55,0.55)"><g transform="" style="fill: rgb(0, 0, 0);">
<polygon points="0,100 100,50 100,50 0,0 "/>
</g></g><g transform="translate(1925,1265) scale(0.55,0.55)"><g transform="" style="fill: rgb(0, 0, 0);">
<rect width="100" height="100"/>
</g></g><g transform="translate(1980,1265) scale(0.55,0.55)"><g transform="" style="fill: rgb(0, 0, 0);">
<g>
	<path d="M100,0H0v100h65.625c9.506,0,17.611-3.354,24.316-10.059S100,75.131,100,65.625V0z"/>
</g>
</g></g><g transform="translate(55,1320) scale(0.55,0.55)"><g transform="" style="fill: rgb(0, 0, 0);">
<polygon points="100,100 50,0 50,0 0,100 "/>
</g></g><g transform="translate(165,1320) scale(0.55,0.55)"><g transform="" style="fill: rgb(0, 0, 0);">
<polygon points="100,100 50,0 50,0 0,100 "/>
</g></g><g transform="translate(275,1320) scale(0.55,0.55)"><g transform="" style="fill: rgb(0, 0, 0);">
<rect width="100" height="100"/>
</g></g><g transform="translate(330,1320) scale(0.55,0.55)"><g transform="" style="fill: rgb(0, 0, 0);">
<rect width="100" height="100"/>
</g></g><g transform="translate(385,1320) scale(0.55,0.55)"><g transform="" style="fill: rgb(0, 0, 0);">
<g>
	<path d="M100,34.375c0-9.505-3.354-17.611-10.059-24.316S75.131,0,65.625,0H0v100h100V34.375z"/>
</g>
</g></g><g transform="translate(550,1320) scale(0.55,0.55)"><g transform="" style="fill: rgb(0, 0, 0);">
<polygon points="100,100 50,0 50,0 0,100 "/>
</g></g><g transform="translate(770,1320) scale(0.55,0.55)"><g transform="" style="fill: rgb(0, 0, 0);">
<polygon points="100,100 50,0 50,0 0,100 "/>
</g></g><g transform="translate(935,1320) scale(0.55,0.55)"><g transform="" style="fill: rgb(0, 0, 0);">
<polygon points="100,100 50,0 50,0 0,100 "/>
</g></g><g transform="translate(1100,1320) scale(0.55,0.55)"><g transform="" style="fill: rgb(0, 0, 0);">
<polygon points="100,100 50,0 50,0 0,100 "/>
</g></g><g transform="translate(1595,1320) scale(0.55,0.55)"><g transform="" style="fill: rgb(0, 0, 0);">
<g>
	<path d="M100,0H0v65.625c0,9.506,3.353,17.611,10.059,24.316S24.87,100,34.375,100H100V0z"/>
</g>
</g></g><g transform="translate(1650,1320) scale(0.55,0.55)"><g transform="" style="fill: rgb(0, 0, 0);">
<g>
	<path d="M100,0H0v100h65.625c9.506,0,17.611-3.354,24.316-10.059S100,75.131,100,65.625V0z"/>
</g>
</g></g><g transform="translate(1760,1320) scale(0.55,0.55)"><g transform="" style="fill: rgb(0, 0, 0);">
<polygon points="100,100 0,50 0,50 100,0 "/>
</g></g><g transform="translate(1815,1320) scale(0.55,0.55)"><g transform="" style="fill: rgb(0, 0, 0);">
<rect width="100" height="100"/>
</g></g><g transform="translate(1870,1320) scale(0.55,0.55)"><g transform="" style="fill: rgb(0, 0, 0);">
<rect width="100" height="100"/>
</g></g><g transform="translate(1925,1320) scale(0.55,0.55)"><g transform="" style="fill: rgb(0, 0, 0);">
<g>
	<path d="M100,0H0v100h65.625c9.506,0,17.611-3.354,24.316-10.059S100,75.131,100,65.625V0z"/>
</g>
</g></g><g transform="translate(0,1375) scale(0.55,0.55)"><g transform="" style="fill: rgb(0, 0, 0);">
<g>
	<path d="M100,34.375V0H34.375C24.87,0,16.764,3.353,10.059,10.059S0,24.87,0,34.375V100h100V34.375z"/>
</g>
</g></g><g transform="translate(55,1375) scale(0.55,0.55)"><g transform="" style="fill: rgb(0, 0, 0);">
<rect width="100" height="100"/>
</g></g><g transform="translate(110,1375) scale(0.55,0.55)"><g transform="" style="fill: rgb(0, 0, 0);">
<rect width="100" height="100"/>
</g></g><g transform="translate(165,1375) scale(0.55,0.55)"><g transform="" style="fill: rgb(0, 0, 0);">
<rect width="100" height="100"/>
</g></g><g transform="translate(220,1375) scale(0.55,0.55)"><g transform="" style="fill: rgb(0, 0, 0);">
<rect width="100" height="100"/>
</g></g><g transform="translate(275,1375) scale(0.55,0.55)"><g transform="" style="fill: rgb(0, 0, 0);">
<g>
	<path d="M100,0H0v100h65.625c9.506,0,17.611-3.354,24.316-10.059S100,75.131,100,65.625V0z"/>
</g>
</g></g><g transform="translate(385,1375) scale(0.55,0.55)"><g transform="" style="fill: rgb(0, 0, 0);">
<polygon points="0,-0.001 50,99.999 50,99.999 100,-0.001 "/>
</g></g><g transform="translate(495,1375) scale(0.55,0.55)"><g transform="" style="fill: rgb(0, 0, 0);">
<polygon points="100,100 0,50 0,50 100,0 "/>
</g></g><g transform="translate(550,1375) scale(0.55,0.55)"><g transform="" style="fill: rgb(0, 0, 0);">
<rect width="100" height="100"/>
</g></g><g transform="translate(605,1375) scale(0.55,0.55)"><g transform="" style="fill: rgb(0, 0, 0);">
<rect width="100" height="100"/>
</g></g><g transform="translate(660,1375) scale(0.55,0.55)"><g transform="" style="fill: rgb(0, 0, 0);">
<rect width="100" height="100"/>
</g></g><g transform="translate(715,1375) scale(0.55,0.55)"><g transform="" style="fill: rgb(0, 0, 0);">
<rect width="100" height="100"/>
</g></g><g transform="translate(770,1375) scale(0.55,0.55)"><g transform="" style="fill: rgb(0, 0, 0);">
<rect width="100" height="100"/>
</g></g><g transform="translate(825,1375) scale(0.55,0.55)"><g transform="" style="fill: rgb(0, 0, 0);">
<rect width="100" height="100"/>
</g></g><g transform="translate(880,1375) scale(0.55,0.55)"><g transform="" style="fill: rgb(0, 0, 0);">
<rect width="100" height="100"/>
</g></g><g transform="translate(935,1375) scale(0.55,0.55)"><g transform="" style="fill: rgb(0, 0, 0);">
<rect width="100" height="100"/>
</g></g><g transform="translate(1100,1375) scale(0.55,0.55)"><g transform="" style="fill: rgb(0, 0, 0);">
<rect width="100" height="100"/>
</g></g><g transform="translate(1155,1375) scale(0.55,0.55)"><g transform="" style="fill: rgb(0, 0, 0);">
<g>
	<path d="M100,34.375c0-9.505-3.354-17.611-10.059-24.316S75.131,0,65.625,0H0v100h100V34.375z"/>
</g>
</g></g><g transform="translate(1320,1375) scale(0.55,0.55)"><g transform="" style="fill: rgb(0, 0, 0);">
<polygon points="99.999,49.999 99.998,49.999 49.999,0 0,49.999 -0.001,49.999 -0.001,50 0,50 49.999,99.999 99.998,50 99.999,50 
	99.998,50 "/>
</g></g><g transform="translate(1540,1375) scale(0.55,0.55)"><g transform="" style="fill: rgb(0, 0, 0);">
<polygon points="100,100 50,0 50,0 0,100 "/>
</g></g><g transform="translate(1705,1375) scale(0.55,0.55)"><g transform="" style="fill: rgb(0, 0, 0);">
<polygon points="99.999,49.999 99.998,49.999 49.999,0 0,49.999 -0.001,49.999 -0.001,50 0,50 49.999,99.999 99.998,50 99.999,50 
	99.998,50 "/>
</g></g><g transform="translate(1870,1375) scale(0.55,0.55)"><g transform="" style="fill: rgb(0, 0, 0);">
<polygon points="0,-0.001 50,99.999 50,99.999 100,-0.001 "/>
</g></g><g transform="translate(0,1430) scale(0.55,0.55)"><g transform="" style="fill: rgb(0, 0, 0);">
<rect width="100" height="100"/>
</g></g><g transform="translate(110,1430) scale(0.55,0.55)"><g transform="" style="fill: rgb(0, 0, 0);">
<g>
	<path d="M100,0H0v65.625c0,9.506,3.353,17.611,10.059,24.316S24.87,100,34.375,100H100V0z"/>
</g>
</g></g><g transform="translate(165,1430) scale(0.55,0.55)"><g transform="" style="fill: rgb(0, 0, 0);">
<rect width="100" height="100"/>
</g></g><g transform="translate(330,1430) scale(0.55,0.55)"><g transform="" style="fill: rgb(0, 0, 0);">
<polygon points="99.999,49.999 99.998,49.999 49.999,0 0,49.999 -0.001,49.999 -0.001,50 0,50 49.999,99.999 99.998,50 99.999,50 
	99.998,50 "/>
</g></g><g transform="translate(550,1430) scale(0.55,0.55)"><g transform="" style="fill: rgb(0, 0, 0);">
<g>
	<path d="M100,0H0v65.625c0,9.506,3.353,17.611,10.059,24.316S24.87,100,34.375,100H100V0z"/>
</g>
</g></g><g transform="translate(605,1430) scale(0.55,0.55)"><g transform="" style="fill: rgb(0, 0, 0);">
<rect width="100" height="100"/>
</g></g><g transform="translate(715,1430) scale(0.55,0.55)"><g transform="" style="fill: rgb(0, 0, 0);">
<polygon points="0,-0.001 50,99.999 50,99.999 100,-0.001 "/>
</g></g><g transform="translate(935,1430) scale(0.55,0.55)"><g transform="" style="fill: rgb(0, 0, 0);">
<rect width="100" height="100"/>
</g></g><g transform="translate(990,1430) scale(0.55,0.55)"><g transform="" style="fill: rgb(0, 0, 0);">
<rect width="100" height="100"/>
</g></g><g transform="translate(1045,1430) scale(0.55,0.55)"><g transform="" style="fill: rgb(0, 0, 0);">
<rect width="100" height="100"/>
</g></g><g transform="translate(1100,1430) scale(0.55,0.55)"><g transform="" style="fill: rgb(0, 0, 0);">
<rect width="100" height="100"/>
</g></g><g transform="translate(1155,1430) scale(0.55,0.55)"><g transform="" style="fill: rgb(0, 0, 0);">
<rect width="100" height="100"/>
</g></g><g transform="translate(1210,1430) scale(0.55,0.55)"><g transform="" style="fill: rgb(0, 0, 0);">
<g>
	<path d="M100,34.375c0-9.505-3.354-17.611-10.059-24.316S75.131,0,65.625,0H0v100h100V34.375z"/>
</g>
</g></g><g transform="translate(1375,1430) scale(0.55,0.55)"><g transform="" style="fill: rgb(0, 0, 0);">
<polygon points="100,100 0,50 0,50 100,0 "/>
</g></g><g transform="translate(1430,1430) scale(0.55,0.55)"><g transform="" style="fill: rgb(0, 0, 0);">
<rect width="100" height="100"/>
</g></g><g transform="translate(1485,1430) scale(0.55,0.55)"><g transform="" style="fill: rgb(0, 0, 0);">
<rect width="100" height="100"/>
</g></g><g transform="translate(1540,1430) scale(0.55,0.55)"><g transform="" style="fill: rgb(0, 0, 0);">
<g>
	<path d="M100,0H0v100h65.625c9.506,0,17.611-3.354,24.316-10.059S100,75.131,100,65.625V0z"/>
</g>
</g></g><g transform="translate(1650,1430) scale(0.55,0.55)"><g transform="" style="fill: rgb(0, 0, 0);">
<polygon points="99.999,49.999 99.998,49.999 49.999,0 0,49.999 -0.001,49.999 -0.001,50 0,50 49.999,99.999 99.998,50 99.999,50 
	99.998,50 "/>
</g></g><g transform="translate(1925,1430) scale(0.55,0.55)"><g transform="" style="fill: rgb(0, 0, 0);">
<polygon points="100,100 0,50 0,50 100,0 "/>
</g></g><g transform="translate(1980,1430) scale(0.55,0.55)"><g transform="" style="fill: rgb(0, 0, 0);">
<polygon points="0,100 100,50 100,50 0,0 "/>
</g></g><g transform="translate(0,1485) scale(0.55,0.55)"><g transform="" style="fill: rgb(0, 0, 0);">
<rect width="100" height="100"/>
</g></g><g transform="translate(165,1485) scale(0.55,0.55)"><g transform="" style="fill: rgb(0, 0, 0);">
<rect width="100" height="100"/>
</g></g><g transform="translate(220,1485) scale(0.55,0.55)"><g transform="" style="fill: rgb(0, 0, 0);">
<g>
	<path d="M100,34.375c0-9.505-3.354-17.611-10.059-24.316S75.131,0,65.625,0H0v100h100V34.375z"/>
</g>
</g></g><g transform="translate(385,1485) scale(0.55,0.55)"><g transform="" style="fill: rgb(0, 0, 0);">
<polygon points="100,100 0,50 0,50 100,0 "/>
</g></g><g transform="translate(440,1485) scale(0.55,0.55)"><g transform="" style="fill: rgb(0, 0, 0);">
<rect width="100" height="100"/>
</g></g><g transform="translate(495,1485) scale(0.55,0.55)"><g transform="" style="fill: rgb(0, 0, 0);">
<polygon points="0,100 100,50 100,50 0,0 "/>
</g></g><g transform="translate(605,1485) scale(0.55,0.55)"><g transform="" style="fill: rgb(0, 0, 0);">
<rect width="100" height="100"/>
</g></g><g transform="translate(660,1485) scale(0.55,0.55)"><g transform="" style="fill: rgb(0, 0, 0);">
<g>
	<path d="M100,34.375c0-9.505-3.354-17.611-10.059-24.316S75.131,0,65.625,0H0v100h100V34.375z"/>
</g>
</g></g><g transform="translate(770,1485) scale(0.55,0.55)"><g transform="" style="fill: rgb(0, 0, 0);">
<polygon points="100,100 0,50 0,50 100,0 "/>
</g></g><g transform="translate(825,1485) scale(0.55,0.55)"><g transform="" style="fill: rgb(0, 0, 0);">
<g>
	<path d="M100,34.375c0-9.505-3.354-17.611-10.059-24.316S75.131,0,65.625,0H0v100h100V34.375z"/>
</g>
</g></g><g transform="translate(935,1485) scale(0.55,0.55)"><g transform="" style="fill: rgb(0, 0, 0);">
<rect width="100" height="100"/>
</g></g><g transform="translate(1100,1485) scale(0.55,0.55)"><g transform="" style="fill: rgb(0, 0, 0);">
<rect width="100" height="100"/>
</g></g><g transform="translate(1210,1485) scale(0.55,0.55)"><g transform="" style="fill: rgb(0, 0, 0);">
<rect width="100" height="100"/>
</g></g><g transform="translate(1320,1485) scale(0.55,0.55)"><g transform="" style="fill: rgb(0, 0, 0);">
<polygon points="100,100 50,0 50,0 0,100 "/>
</g></g><g transform="translate(1430,1485) scale(0.55,0.55)"><g transform="" style="fill: rgb(0, 0, 0);">
<rect width="100" height="100"/>
</g></g><g transform="translate(1485,1485) scale(0.55,0.55)"><g transform="" style="fill: rgb(0, 0, 0);">
<rect width="100" height="100"/>
</g></g><g transform="translate(1595,1485) scale(0.55,0.55)"><g transform="" style="fill: rgb(0, 0, 0);">
<polygon points="100,100 50,0 50,0 0,100 "/>
</g></g><g transform="translate(1705,1485) scale(0.55,0.55)"><g transform="" style="fill: rgb(0, 0, 0);">
<g>
	<path d="M100,34.375V0H34.375C24.87,0,16.764,3.353,10.059,10.059S0,24.87,0,34.375V100h100V34.375z"/>
</g>
</g></g><g transform="translate(1760,1485) scale(0.55,0.55)"><g transform="" style="fill: rgb(0, 0, 0);">
<g>
	<path d="M100,34.375c0-9.505-3.354-17.611-10.059-24.316S75.131,0,65.625,0H0v100h100V34.375z"/>
</g>
</g></g><g transform="translate(0,1540) scale(0.55,0.55)"><g transform="" style="fill: rgb(0, 0, 0);">
<polygon points="0,-0.001 50,99.999 50,99.999 100,-0.001 "/>
</g></g><g transform="translate(165,1540) scale(0.55,0.55)"><g transform="" style="fill: rgb(0, 0, 0);">
<g>
	<path d="M100,0H0v65.625c0,9.506,3.353,17.611,10.059,24.316S24.87,100,34.375,100H100V0z"/>
</g>
</g></g><g transform="translate(220,1540) scale(0.55,0.55)"><g transform="" style="fill: rgb(0, 0, 0);">
<g>
	<path d="M100,0H0v100h65.625c9.506,0,17.611-3.354,24.316-10.059S100,75.131,100,65.625V0z"/>
</g>
</g></g><g transform="translate(330,1540) scale(0.55,0.55)"><g transform="" style="fill: rgb(0, 0, 0);">
<polygon points="99.999,49.999 99.998,49.999 49.999,0 0,49.999 -0.001,49.999 -0.001,50 0,50 49.999,99.999 99.998,50 99.999,50 
	99.998,50 "/>
</g></g><g transform="translate(440,1540) scale(0.55,0.55)"><g transform="" style="fill: rgb(0, 0, 0);">
<rect width="100" height="100"/>
</g></g><g transform="translate(605,1540) scale(0.55,0.55)"><g transform="" style="fill: rgb(0, 0, 0);">
<rect width="100" height="100"/>
</g></g><g transform="translate(660,1540) scale(0.55,0.55)"><g transform="" style="fill: rgb(0, 0, 0);">
<g>
	<path d="M100,0H0v100h65.625c9.506,0,17.611-3.354,24.316-10.059S100,75.131,100,65.625V0z"/>
</g>
</g></g><g transform="translate(825,1540) scale(0.55,0.55)"><g transform="" style="fill: rgb(0, 0, 0);">
<g>
	<path d="M100,0H0v65.625c0,9.506,3.353,17.611,10.059,24.316S24.87,100,34.375,100H100V0z"/>
</g>
</g></g><g transform="translate(880,1540) scale(0.55,0.55)"><g transform="" style="fill: rgb(0, 0, 0);">
<rect width="100" height="100"/>
</g></g><g transform="translate(935,1540) scale(0.55,0.55)"><g transform="" style="fill: rgb(0, 0, 0);">
<rect width="100" height="100"/>
</g></g><g transform="translate(990,1540) scale(0.55,0.55)"><g transform="" style="fill: rgb(0, 0, 0);">
<g>
	<path d="M100,34.375c0-9.505-3.354-17.611-10.059-24.316S75.131,0,65.625,0H0v100h100V34.375z"/>
</g>
</g></g><g transform="translate(1100,1540) scale(0.55,0.55)"><g transform="" style="fill: rgb(0, 0, 0);">
<polygon points="0,-0.001 50,99.999 50,99.999 100,-0.001 "/>
</g></g><g transform="translate(1210,1540) scale(0.55,0.55)"><g transform="" style="fill: rgb(0, 0, 0);">
<polygon points="0,-0.001 50,99.999 50,99.999 100,-0.001 "/>
</g></g><g transform="translate(1320,1540) scale(0.55,0.55)"><g transform="" style="fill: rgb(0, 0, 0);">
<g>
	<path d="M100,0H0v65.625c0,9.506,3.353,17.611,10.059,24.316S24.87,100,34.375,100H100V0z"/>
</g>
</g></g><g transform="translate(1375,1540) scale(0.55,0.55)"><g transform="" style="fill: rgb(0, 0, 0);">
<rect width="100" height="100"/>
</g></g><g transform="translate(1430,1540) scale(0.55,0.55)"><g transform="" style="fill: rgb(0, 0, 0);">
<rect width="100" height="100"/>
</g></g><g transform="translate(1485,1540) scale(0.55,0.55)"><g transform="" style="fill: rgb(0, 0, 0);">
<rect width="100" height="100"/>
</g></g><g transform="translate(1540,1540) scale(0.55,0.55)"><g transform="" style="fill: rgb(0, 0, 0);">
<rect width="100" height="100"/>
</g></g><g transform="translate(1595,1540) scale(0.55,0.55)"><g transform="" style="fill: rgb(0, 0, 0);">
<rect width="100" height="100"/>
</g></g><g transform="translate(1650,1540) scale(0.55,0.55)"><g transform="" style="fill: rgb(0, 0, 0);">
<rect width="100" height="100"/>
</g></g><g transform="translate(1705,1540) scale(0.55,0.55)"><g transform="" style="fill: rgb(0, 0, 0);">
<rect width="100" height="100"/>
</g></g><g transform="translate(1760,1540) scale(0.55,0.55)"><g transform="" style="fill: rgb(0, 0, 0);">
<rect width="100" height="100"/>
</g></g><g transform="translate(1815,1540) scale(0.55,0.55)"><g transform="" style="fill: rgb(0, 0, 0);">
<rect width="100" height="100"/>
</g></g><g transform="translate(1870,1540) scale(0.55,0.55)"><g transform="" style="fill: rgb(0, 0, 0);">
<rect width="100" height="100"/>
</g></g><g transform="translate(1925,1540) scale(0.55,0.55)"><g transform="" style="fill: rgb(0, 0, 0);">
<g>
	<path d="M100,34.375c0-9.505-3.354-17.611-10.059-24.316S75.131,0,65.625,0H0v100h100V34.375z"/>
</g>
</g></g><g transform="translate(440,1595) scale(0.55,0.55)"><g transform="" style="fill: rgb(0, 0, 0);">
<g>
	<path d="M100,0H0v65.625c0,9.506,3.353,17.611,10.059,24.316S24.87,100,34.375,100H100V0z"/>
</g>
</g></g><g transform="translate(495,1595) scale(0.55,0.55)"><g transform="" style="fill: rgb(0, 0, 0);">
<polygon points="0,100 100,50 100,50 0,0 "/>
</g></g><g transform="translate(605,1595) scale(0.55,0.55)"><g transform="" style="fill: rgb(0, 0, 0);">
<polygon points="0,-0.001 50,99.999 50,99.999 100,-0.001 "/>
</g></g><g transform="translate(770,1595) scale(0.55,0.55)"><g transform="" style="fill: rgb(0, 0, 0);">
<polygon points="100,100 50,0 50,0 0,100 "/>
</g></g><g transform="translate(880,1595) scale(0.55,0.55)"><g transform="" style="fill: rgb(0, 0, 0);">
<g>
	<path d="M100,0H0v65.625c0,9.506,3.353,17.611,10.059,24.316S24.87,100,34.375,100H100V0z"/>
</g>
</g></g><g transform="translate(935,1595) scale(0.55,0.55)"><g transform="" style="fill: rgb(0, 0, 0);">
<rect width="100" height="100"/>
</g></g><g transform="translate(990,1595) scale(0.55,0.55)"><g transform="" style="fill: rgb(0, 0, 0);">
<g>
	<path d="M100,0H0v100h65.625c9.506,0,17.611-3.354,24.316-10.059S100,75.131,100,65.625V0z"/>
</g>
</g></g><g transform="translate(1155,1595) scale(0.55,0.55)"><g transform="" style="fill: rgb(0, 0, 0);">
<polygon points="99.999,49.999 99.998,49.999 49.999,0 0,49.999 -0.001,49.999 -0.001,50 0,50 49.999,99.999 99.998,50 99.999,50 
	99.998,50 "/>
</g></g><g transform="translate(1265,1595) scale(0.55,0.55)"><g transform="" style="fill: rgb(0, 0, 0);">
<polygon points="99.999,49.999 99.998,49.999 49.999,0 0,49.999 -0.001,49.999 -0.001,50 0,50 49.999,99.999 99.998,50 99.999,50 
	99.998,50 "/>
</g></g><g transform="translate(1375,1595) scale(0.55,0.55)"><g transform="" style="fill: rgb(0, 0, 0);">
<rect width="100" height="100"/>
</g></g><g transform="translate(1430,1595) scale(0.55,0.55)"><g transform="" style="fill: rgb(0, 0, 0);">
<rect width="100" height="100"/>
</g></g><g transform="translate(1485,1595) scale(0.55,0.55)"><g transform="" style="fill: rgb(0, 0, 0);">
<rect width="100" height="100"/>
</g></g><g transform="translate(1540,1595) scale(0.55,0.55)"><g transform="" style="fill: rgb(0, 0, 0);">
<rect width="100" height="100"/>
</g></g><g transform="translate(1760,1595) scale(0.55,0.55)"><g transform="" style="fill: rgb(0, 0, 0);">
<rect width="100" height="100"/>
</g></g><g transform="translate(1925,1595) scale(0.55,0.55)"><g transform="" style="fill: rgb(0, 0, 0);">
<rect width="100" height="100"/>
</g></g><g transform="translate(550,1650) scale(0.55,0.55)"><g transform="" style="fill: rgb(0, 0, 0);">
<polygon points="99.999,49.999 99.998,49.999 49.999,0 0,49.999 -0.001,49.999 -0.001,50 0,50 49.999,99.999 99.998,50 99.999,50 
	99.998,50 "/>
</g></g><g transform="translate(660,1650) scale(0.55,0.55)"><g transform="" style="fill: rgb(0, 0, 0);">
<polygon points="99.999,49.999 99.998,49.999 49.999,0 0,49.999 -0.001,49.999 -0.001,50 0,50 49.999,99.999 99.998,50 99.999,50 
	99.998,50 "/>
</g></g><g transform="translate(770,1650) scale(0.55,0.55)"><g transform="" style="fill: rgb(0, 0, 0);">
<g>
	<path d="M100,0H0v65.625c0,9.506,3.353,17.611,10.059,24.316S24.87,100,34.375,100H100V0z"/>
</g>
</g></g><g transform="translate(825,1650) scale(0.55,0.55)"><g transform="" style="fill: rgb(0, 0, 0);">
<g>
	<path d="M100,34.375c0-9.505-3.354-17.611-10.059-24.316S75.131,0,65.625,0H0v100h100V34.375z"/>
</g>
</g></g><g transform="translate(1375,1650) scale(0.55,0.55)"><g transform="" style="fill: rgb(0, 0, 0);">
<g>
	<path d="M100,0H0v65.625c0,9.506,3.353,17.611,10.059,24.316S24.87,100,34.375,100H100V0z"/>
</g>
</g></g><g transform="translate(1430,1650) scale(0.55,0.55)"><g transform="" style="fill: rgb(0, 0, 0);">
<g>
	<path d="M100,0H0v100h65.625c9.506,0,17.611-3.354,24.316-10.059S100,75.131,100,65.625V0z"/>
</g>
</g></g><g transform="translate(1540,1650) scale(0.55,0.55)"><g transform="" style="fill: rgb(0, 0, 0);">
<rect width="100" height="100"/>
</g></g><g transform="translate(1650,1650) scale(0.55,0.55)"><g transform="" style="fill: rgb(0, 0, 0);">
<polygon points="99.999,49.999 99.998,49.999 49.999,0 0,49.999 -0.001,49.999 -0.001,50 0,50 49.999,99.999 99.998,50 99.999,50 
	99.998,50 "/>
</g></g><g transform="translate(1760,1650) scale(0.55,0.55)"><g transform="" style="fill: rgb(0, 0, 0);">
<rect width="100" height="100"/>
</g></g><g transform="translate(1815,1650) scale(0.55,0.55)"><g transform="" style="fill: rgb(0, 0, 0);">
<polygon points="0,100 100,50 100,50 0,0 "/>
</g></g><g transform="translate(1925,1650) scale(0.55,0.55)"><g transform="" style="fill: rgb(0, 0, 0);">
<rect width="100" height="100"/>
</g></g><g transform="translate(1980,1650) scale(0.55,0.55)"><g transform="" style="fill: rgb(0, 0, 0);">
<polygon points="0,100 100,50 100,50 0,0 "/>
</g></g><g transform="translate(495,1705) scale(0.55,0.55)"><g transform="" style="fill: rgb(0, 0, 0);">
<polygon points="99.999,49.999 99.998,49.999 49.999,0 0,49.999 -0.001,49.999 -0.001,50 0,50 49.999,99.999 99.998,50 99.999,50 
	99.998,50 "/>
</g></g><g transform="translate(715,1705) scale(0.55,0.55)"><g transform="" style="fill: rgb(0, 0, 0);">
<polygon points="99.999,49.999 99.998,49.999 49.999,0 0,49.999 -0.001,49.999 -0.001,50 0,50 49.999,99.999 99.998,50 99.999,50 
	99.998,50 "/>
</g></g><g transform="translate(825,1705) scale(0.55,0.55)"><g transform="" style="fill: rgb(0, 0, 0);">
<g>
	<path d="M100,0H0v65.625c0,9.506,3.353,17.611,10.059,24.316S24.87,100,34.375,100H100V0z"/>
</g>
</g></g><g transform="translate(880,1705) scale(0.55,0.55)"><g transform="" style="fill: rgb(0, 0, 0);">
<g>
	<path d="M100,34.375c0-9.505-3.354-17.611-10.059-24.316S75.131,0,65.625,0H0v100h100V34.375z"/>
</g>
</g></g><g transform="translate(990,1705) scale(0.55,0.55)"><g transform="" style="fill: rgb(0, 0, 0);">
<polygon points="100,100 50,0 50,0 0,100 "/>
</g></g><g transform="translate(1155,1705) scale(0.55,0.55)"><g transform="" style="fill: rgb(0, 0, 0);">
<g>
	<path d="M100,34.375V0H34.375C24.87,0,16.764,3.353,10.059,10.059S0,24.87,0,34.375V100h100V34.375z"/>
</g>
</g></g><g transform="translate(1210,1705) scale(0.55,0.55)"><g transform="" style="fill: rgb(0, 0, 0);">
<polygon points="0,100 100,50 100,50 0,0 "/>
</g></g><g transform="translate(1485,1705) scale(0.55,0.55)"><g transform="" style="fill: rgb(0, 0, 0);">
<g>
	<path d="M100,34.375V0H34.375C24.87,0,16.764,3.353,10.059,10.059S0,24.87,0,34.375V100h100V34.375z"/>
</g>
</g></g><g transform="translate(1540,1705) scale(0.55,0.55)"><g transform="" style="fill: rgb(0, 0, 0);">
<rect width="100" height="100"/>
</g></g><g transform="translate(1760,1705) scale(0.55,0.55)"><g transform="" style="fill: rgb(0, 0, 0);">
<rect width="100" height="100"/>
</g></g><g transform="translate(1925,1705) scale(0.55,0.55)"><g transform="" style="fill: rgb(0, 0, 0);">
<rect width="100" height="100"/>
</g></g><g transform="translate(440,1760) scale(0.55,0.55)"><g transform="" style="fill: rgb(0, 0, 0);">
<polygon points="100,100 50,0 50,0 0,100 "/>
</g></g><g transform="translate(550,1760) scale(0.55,0.55)"><g transform="" style="fill: rgb(0, 0, 0);">
<g>
	<path d="M100,34.375V0H34.375C24.87,0,16.764,3.353,10.059,10.059S0,24.87,0,34.375V100h100V34.375z"/>
</g>
</g></g><g transform="translate(605,1760) scale(0.55,0.55)"><g transform="" style="fill: rgb(0, 0, 0);">
<g>
	<path d="M100,34.375c0-9.505-3.354-17.611-10.059-24.316S75.131,0,65.625,0H0v100h100V34.375z"/>
</g>
</g></g><g transform="translate(770,1760) scale(0.55,0.55)"><g transform="" style="fill: rgb(0, 0, 0);">
<polygon points="99.999,49.999 99.998,49.999 49.999,0 0,49.999 -0.001,49.999 -0.001,50 0,50 49.999,99.999 99.998,50 99.999,50 
	99.998,50 "/>
</g></g><g transform="translate(880,1760) scale(0.55,0.55)"><g transform="" style="fill: rgb(0, 0, 0);">
<polygon points="0,-0.001 50,99.999 50,99.999 100,-0.001 "/>
</g></g><g transform="translate(990,1760) scale(0.55,0.55)"><g transform="" style="fill: rgb(0, 0, 0);">
<polygon points="0,-0.001 50,99.999 50,99.999 100,-0.001 "/>
</g></g><g transform="translate(1100,1760) scale(0.55,0.55)"><g transform="" style="fill: rgb(0, 0, 0);">
<g>
	<path d="M100,34.375V0H34.375C24.87,0,16.764,3.353,10.059,10.059S0,24.87,0,34.375V100h100V34.375z"/>
</g>
</g></g><g transform="translate(1155,1760) scale(0.55,0.55)"><g transform="" style="fill: rgb(0, 0, 0);">
<rect width="100" height="100"/>
</g></g><g transform="translate(1320,1760) scale(0.55,0.55)"><g transform="" style="fill: rgb(0, 0, 0);">
<polygon points="100,100 0,50 0,50 100,0 "/>
</g></g><g transform="translate(1375,1760) scale(0.55,0.55)"><g transform="" style="fill: rgb(0, 0, 0);">
<polygon points="0,100 100,50 100,50 0,0 "/>
</g></g><g transform="translate(1485,1760) scale(0.55,0.55)"><g transform="" style="fill: rgb(0, 0, 0);">
<rect width="100" height="100"/>
</g></g><g transform="translate(1540,1760) scale(0.55,0.55)"><g transform="" style="fill: rgb(0, 0, 0);">
<rect width="100" height="100"/>
</g></g><g transform="translate(1595,1760) scale(0.55,0.55)"><g transform="" style="fill: rgb(0, 0, 0);">
<rect width="100" height="100"/>
</g></g><g transform="translate(1650,1760) scale(0.55,0.55)"><g transform="" style="fill: rgb(0, 0, 0);">
<rect width="100" height="100"/>
</g></g><g transform="translate(1705,1760) scale(0.55,0.55)"><g transform="" style="fill: rgb(0, 0, 0);">
<rect width="100" height="100"/>
</g></g><g transform="translate(1760,1760) scale(0.55,0.55)"><g transform="" style="fill: rgb(0, 0, 0);">
<rect width="100" height="100"/>
</g></g><g transform="translate(1870,1760) scale(0.55,0.55)"><g transform="" style="fill: rgb(0, 0, 0);">
<g>
	<path d="M100,34.375V0H34.375C24.87,0,16.764,3.353,10.059,10.059S0,24.87,0,34.375V100h100V34.375z"/>
</g>
</g></g><g transform="translate(1925,1760) scale(0.55,0.55)"><g transform="" style="fill: rgb(0, 0, 0);">
<rect width="100" height="100"/>
</g></g><g transform="translate(1980,1760) scale(0.55,0.55)"><g transform="" style="fill: rgb(0, 0, 0);">
<polygon points="0,100 100,50 100,50 0,0 "/>
</g></g><g transform="translate(440,1815) scale(0.55,0.55)"><g transform="" style="fill: rgb(0, 0, 0);">
<rect width="100" height="100"/>
</g></g><g transform="translate(550,1815) scale(0.55,0.55)"><g transform="" style="fill: rgb(0, 0, 0);">
<g>
	<path d="M100,0H0v65.625c0,9.506,3.353,17.611,10.059,24.316S24.87,100,34.375,100H100V0z"/>
</g>
</g></g><g transform="translate(605,1815) scale(0.55,0.55)"><g transform="" style="fill: rgb(0, 0, 0);">
<rect width="100" height="100"/>
</g></g><g transform="translate(715,1815) scale(0.55,0.55)"><g transform="" style="fill: rgb(0, 0, 0);">
<polygon points="100,100 50,0 50,0 0,100 "/>
</g></g><g transform="translate(825,1815) scale(0.55,0.55)"><g transform="" style="fill: rgb(0, 0, 0);">
<polygon points="100,100 50,0 50,0 0,100 "/>
</g></g><g transform="translate(1045,1815) scale(0.55,0.55)"><g transform="" style="fill: rgb(0, 0, 0);">
<polygon points="100,100 0,50 0,50 100,0 "/>
</g></g><g transform="translate(1100,1815) scale(0.55,0.55)"><g transform="" style="fill: rgb(0, 0, 0);">
<rect width="100" height="100"/>
</g></g><g transform="translate(1155,1815) scale(0.55,0.55)"><g transform="" style="fill: rgb(0, 0, 0);">
<g>
	<path d="M100,0H0v100h65.625c9.506,0,17.611-3.354,24.316-10.059S100,75.131,100,65.625V0z"/>
</g>
</g></g><g transform="translate(1485,1815) scale(0.55,0.55)"><g transform="" style="fill: rgb(0, 0, 0);">
<g>
	<path d="M100,0H0v65.625c0,9.506,3.353,17.611,10.059,24.316S24.87,100,34.375,100H100V0z"/>
</g>
</g></g><g transform="translate(1540,1815) scale(0.55,0.55)"><g transform="" style="fill: rgb(0, 0, 0);">
<rect width="100" height="100"/>
</g></g><g transform="translate(1650,1815) scale(0.55,0.55)"><g transform="" style="fill: rgb(0, 0, 0);">
<polygon points="0,-0.001 50,99.999 50,99.999 100,-0.001 "/>
</g></g><g transform="translate(1760,1815) scale(0.55,0.55)"><g transform="" style="fill: rgb(0, 0, 0);">
<polygon points="0,-0.001 50,99.999 50,99.999 100,-0.001 "/>
</g></g><g transform="translate(1870,1815) scale(0.55,0.55)"><g transform="" style="fill: rgb(0, 0, 0);">
<polygon points="0,-0.001 50,99.999 50,99.999 100,-0.001 "/>
</g></g><g transform="translate(440,1870) scale(0.55,0.55)"><g transform="" style="fill: rgb(0, 0, 0);">
<polygon points="0,-0.001 50,99.999 50,99.999 100,-0.001 "/>
</g></g><g transform="translate(605,1870) scale(0.55,0.55)"><g transform="" style="fill: rgb(0, 0, 0);">
<g>
	<path d="M100,0H0v65.625c0,9.506,3.353,17.611,10.059,24.316S24.87,100,34.375,100H100V0z"/>
</g>
</g></g><g transform="translate(660,1870) scale(0.55,0.55)"><g transform="" style="fill: rgb(0, 0, 0);">
<rect width="100" height="100"/>
</g></g><g transform="translate(715,1870) scale(0.55,0.55)"><g transform="" style="fill: rgb(0, 0, 0);">
<rect width="100" height="100"/>
</g></g><g transform="translate(770,1870) scale(0.55,0.55)"><g transform="" style="fill: rgb(0, 0, 0);">
<rect width="100" height="100"/>
</g></g><g transform="translate(825,1870) scale(0.55,0.55)"><g transform="" style="fill: rgb(0, 0, 0);">
<rect width="100" height="100"/>
</g></g><g transform="translate(880,1870) scale(0.55,0.55)"><g transform="" style="fill: rgb(0, 0, 0);">
<g>
	<path d="M100,34.375c0-9.505-3.354-17.611-10.059-24.316S75.131,0,65.625,0H0v100h100V34.375z"/>
</g>
</g></g><g transform="translate(990,1870) scale(0.55,0.55)"><g transform="" style="fill: rgb(0, 0, 0);">
<polygon points="99.999,49.999 99.998,49.999 49.999,0 0,49.999 -0.001,49.999 -0.001,50 0,50 49.999,99.999 99.998,50 99.999,50 
	99.998,50 "/>
</g></g><g transform="translate(1265,1870) scale(0.55,0.55)"><g transform="" style="fill: rgb(0, 0, 0);">
<g>
	<path d="M100,34.375V0H34.375C24.87,0,16.764,3.353,10.059,10.059S0,24.87,0,34.375V100h100V34.375z"/>
</g>
</g></g><g transform="translate(1320,1870) scale(0.55,0.55)"><g transform="" style="fill: rgb(0, 0, 0);">
<rect width="100" height="100"/>
</g></g><g transform="translate(1375,1870) scale(0.55,0.55)"><g transform="" style="fill: rgb(0, 0, 0);">
<polygon points="0,100 100,50 100,50 0,0 "/>
</g></g><g transform="translate(1540,1870) scale(0.55,0.55)"><g transform="" style="fill: rgb(0, 0, 0);">
<rect width="100" height="100"/>
</g></g><g transform="translate(1595,1870) scale(0.55,0.55)"><g transform="" style="fill: rgb(0, 0, 0);">
<polygon points="0,100 100,50 100,50 0,0 "/>
</g></g><g transform="translate(1815,1870) scale(0.55,0.55)"><g transform="" style="fill: rgb(0, 0, 0);">
<polygon points="99.999,49.999 99.998,49.999 49.999,0 0,49.999 -0.001,49.999 -0.001,50 0,50 49.999,99.999 99.998,50 99.999,50 
	99.998,50 "/>
</g></g><g transform="translate(1980,1870) scale(0.55,0.55)"><g transform="" style="fill: rgb(0, 0, 0);">
<polygon points="100,100 50,0 50,0 0,100 "/>
</g></g><g transform="translate(770,1925) scale(0.55,0.55)"><g transform="" style="fill: rgb(0, 0, 0);">
<g>
	<path d="M100,0H0v65.625c0,9.506,3.353,17.611,10.059,24.316S24.87,100,34.375,100H100V0z"/>
</g>
</g></g><g transform="translate(825,1925) scale(0.55,0.55)"><g transform="" style="fill: rgb(0, 0, 0);">
<rect width="100" height="100"/>
</g></g><g transform="translate(880,1925) scale(0.55,0.55)"><g transform="" style="fill: rgb(0, 0, 0);">
<rect width="100" height="100"/>
</g></g><g transform="translate(1045,1925) scale(0.55,0.55)"><g transform="" style="fill: rgb(0, 0, 0);">
<g>
	<path d="M100,34.375V0H34.375C24.87,0,16.764,3.353,10.059,10.059S0,24.87,0,34.375V100h100V34.375z"/>
</g>
</g></g><g transform="translate(1100,1925) scale(0.55,0.55)"><g transform="" style="fill: rgb(0, 0, 0);">
<polygon points="0,100 100,50 100,50 0,0 "/>
</g></g><g transform="translate(1265,1925) scale(0.55,0.55)"><g transform="" style="fill: rgb(0, 0, 0);">
<rect width="100" height="100"/>
</g></g><g transform="translate(1485,1925) scale(0.55,0.55)"><g transform="" style="fill: rgb(0, 0, 0);">
<polygon points="100,100 0,50 0,50 100,0 "/>
</g></g><g transform="translate(1540,1925) scale(0.55,0.55)"><g transform="" style="fill: rgb(0, 0, 0);">
<g>
	<path d="M100,0H0v100h65.625c9.506,0,17.611-3.354,24.316-10.059S100,75.131,100,65.625V0z"/>
</g>
</g></g><g transform="translate(1705,1925) scale(0.55,0.55)"><g transform="" style="fill: rgb(0, 0, 0);">
<polygon points="100,100 50,0 50,0 0,100 "/>
</g></g><g transform="translate(1980,1925) scale(0.55,0.55)"><g transform="" style="fill: rgb(0, 0, 0);">
<rect width="100" height="100"/>
</g></g><g transform="translate(550,1980) scale(0.55,0.55)"><g transform="" style="fill: rgb(0, 0, 0);">
<polygon points="100,100 0,50 0,50 100,0 "/>
</g></g><g transform="translate(605,1980) scale(0.55,0.55)"><g transform="" style="fill: rgb(0, 0, 0);">
<polygon points="0,100 100,50 100,50 0,0 "/>
</g></g><g transform="translate(880,1980) scale(0.55,0.55)"><g transform="" style="fill: rgb(0, 0, 0);">
<g>
	<path d="M100,0H0v65.625c0,9.506,3.353,17.611,10.059,24.316S24.87,100,34.375,100H100V0z"/>
</g>
</g></g><g transform="translate(935,1980) scale(0.55,0.55)"><g transform="" style="fill: rgb(0, 0, 0);">
<rect width="100" height="100"/>
</g></g><g transform="translate(990,1980) scale(0.55,0.55)"><g transform="" style="fill: rgb(0, 0, 0);">
<rect width="100" height="100"/>
</g></g><g transform="translate(1045,1980) scale(0.55,0.55)"><g transform="" style="fill: rgb(0, 0, 0);">
<g>
	<path d="M100,0H0v100h65.625c9.506,0,17.611-3.354,24.316-10.059S100,75.131,100,65.625V0z"/>
</g>
</g></g><g transform="translate(1155,1980) scale(0.55,0.55)"><g transform="" style="fill: rgb(0, 0, 0);">
<polygon points="100,100 0,50 0,50 100,0 "/>
</g></g><g transform="translate(1210,1980) scale(0.55,0.55)"><g transform="" style="fill: rgb(0, 0, 0);">
<rect width="100" height="100"/>
</g></g><g transform="translate(1265,1980) scale(0.55,0.55)"><g transform="" style="fill: rgb(0, 0, 0);">
<rect width="100" height="100"/>
</g></g><g transform="translate(1320,1980) scale(0.55,0.55)"><g transform="" style="fill: rgb(0, 0, 0);">
<rect width="100" height="100"/>
</g></g><g transform="translate(1375,1980) scale(0.55,0.55)"><g transform="" style="fill: rgb(0, 0, 0);">
<rect width="100" height="100"/>
</g></g><g transform="translate(1430,1980) scale(0.55,0.55)"><g transform="" style="fill: rgb(0, 0, 0);">
<polygon points="0,100 100,50 100,50 0,0 "/>
</g></g><g transform="translate(1595,1980) scale(0.55,0.55)"><g transform="" style="fill: rgb(0, 0, 0);">
<polygon points="99.999,49.999 99.998,49.999 49.999,0 0,49.999 -0.001,49.999 -0.001,50 0,50 49.999,99.999 99.998,50 99.999,50 
	99.998,50 "/>
</g></g><g transform="translate(1705,1980) scale(0.55,0.55)"><g transform="" style="fill: rgb(0, 0, 0);">
<g>
	<path d="M100,0H0v65.625c0,9.506,3.353,17.611,10.059,24.316S24.87,100,34.375,100H100V0z"/>
</g>
</g></g><g transform="translate(1760,1980) scale(0.55,0.55)"><g transform="" style="fill: rgb(0, 0, 0);">
<rect width="100" height="100"/>
</g></g><g transform="translate(1815,1980) scale(0.55,0.55)"><g transform="" style="fill: rgb(0, 0, 0);">
<rect width="100" height="100"/>
</g></g><g transform="translate(1870,1980) scale(0.55,0.55)"><g transform="" style="fill: rgb(0, 0, 0);">
<rect width="100" height="100"/>
</g></g><g transform="translate(1925,1980) scale(0.55,0.55)"><g transform="" style="fill: rgb(0, 0, 0);">
<rect width="100" height="100"/>
</g></g><g transform="translate(1980,1980) scale(0.55,0.55)"><g transform="" style="fill: rgb(0, 0, 0);">
<g>
	<path d="M100,0H0v100h65.625c9.506,0,17.611-3.354,24.316-10.059S100,75.131,100,65.625V0z"/>
</g>
</g></g><g transform="translate(0,0) scale(3.85, 3.85)"><g transform="" style="fill: rgb(0, 0, 0);">
<path d="M21.475,99.992c-6.648,0-12.964-6.852-13.958-13.207L0.011-0.008l88.112,5.649c6.212,0.931,11.096,6.804,11.104,13.848
	l0.762,80.503H21.475z M85.706,85.71l-0.544-57.492c-0.005-5.029-3.495-9.233-7.931-9.898l-62.938-4.03l5.36,61.98
	c0.71,4.536,5.222,9.44,9.971,9.44H85.706z"/>
</g></g><g transform="translate(1650,0) scale(3.85, 3.85)"><g transform=" translate(100, 0) scale(-1,1) " style="fill: rgb(0, 0, 0);">
<path d="M21.475,99.992c-6.648,0-12.964-6.852-13.958-13.207L0.011-0.008l88.112,5.649c6.212,0.931,11.096,6.804,11.104,13.848
	l0.762,80.503H21.475z M85.706,85.71l-0.544-57.492c-0.005-5.029-3.495-9.233-7.931-9.898l-62.938-4.03l5.36,61.98
	c0.71,4.536,5.222,9.44,9.971,9.44H85.706z"/>
</g></g><g transform="translate(0,1650) scale(3.85, 3.85)"><g transform=" translate(0,100) scale(1,-1) " style="fill: rgb(0, 0, 0);">
<path d="M21.475,99.992c-6.648,0-12.964-6.852-13.958-13.207L0.011-0.008l88.112,5.649c6.212,0.931,11.096,6.804,11.104,13.848
	l0.762,80.503H21.475z M85.706,85.71l-0.544-57.492c-0.005-5.029-3.495-9.233-7.931-9.898l-62.938-4.03l5.36,61.98
	c0.71,4.536,5.222,9.44,9.971,9.44H85.706z"/>
</g></g><g transform="translate(110,110) scale(1.65, 1.65)"><g transform="" style="fill: rgb(0, 0, 0);">
<path d="M0,100C5.883,66.733,5.883,33.283-0.003,0.001C16.67,2.956,33.395,4.447,50,4.447c16.601,0,33.321-1.49,50-4.447
	c-5.886,33.269-5.886,66.715,0.003,100C83.331,97.045,66.605,95.553,50,95.553C33.398,95.553,16.676,97.044,0,100z"/>
</g></g><g transform="translate(1760,110) scale(1.65, 1.65)"><g transform="" style="fill: rgb(0, 0, 0);">
<path d="M0,100C5.883,66.733,5.883,33.283-0.003,0.001C16.67,2.956,33.395,4.447,50,4.447c16.601,0,33.321-1.49,50-4.447
	c-5.886,33.269-5.886,66.715,0.003,100C83.331,97.045,66.605,95.553,50,95.553C33.398,95.553,16.676,97.044,0,100z"/>
</g></g><g transform="translate(110,1760) scale(1.65, 1.65)"><g transform="" style="fill: rgb(0, 0, 0);">
<path d="M0,100C5.883,66.733,5.883,33.283-0.003,0.001C16.67,2.956,33.395,4.447,50,4.447c16.601,0,33.321-1.49,50-4.447
	c-5.886,33.269-5.886,66.715,0.003,100C83.331,97.045,66.605,95.553,50,95.553C33.398,95.553,16.676,97.044,0,100z"/>
</g></g><g transform="translate(715,715) scale(0.605,0.605)" width="605" height="605"><svg
   xmlns:dc="http://purl.org/dc/elements/1.1/"
   xmlns:cc="http://creativecommons.org/ns#"
   xmlns:rdf="http://www.w3.org/1999/02/22-rdf-syntax-ns#"
   xmlns:svg="http://www.w3.org/2000/svg"
   xmlns="http://www.w3.org/2000/svg"
   version="1.1"
   width="1000"
   height="1000"
   viewBox="0 0 1000 1000"
   id="svg6742">
  <defs
     id="defs6744" />
  <metadata
     id="metadata6747">
    <rdf:RDF>
      <cc:Work
         rdf:about="">
        <dc:format>image/svg+xml</dc:format>
        <dc:type
           rdf:resource="http://purl.org/dc/dcmitype/StillImage" />
        <dc:title></dc:title>
      </cc:Work>
    </rdf:RDF>
  </metadata>
  <g
     transform="translate(0,-52.362183)"
     id="layer1">
    <g
       transform="matrix(7.2948777,0,0,7.2948777,-2476.3101,-4965.2075)"
       id="g6799">
      <path
         d="m 339.45875,756.36219 c 0,-37.855 30.6875,-68.54125 68.54125,-68.54125 37.85375,0 68.54124,30.68625 68.54124,68.54125 0,37.85374 -30.68749,68.54124 -68.54124,68.54124 -37.85375,0 -68.54125,-30.6875 -68.54125,-68.54124"
         id="path3850"
         style="fill:#005983;fill-opacity:1;fill-rule:nonzero;stroke:none" />
      <path
         d="m 374.55125,789.11218 15.8125,0 0,-47.56999 -15.8125,0 0,47.56999 z m 8.01001,-70.49999 c -5.41126,0 -8.95,3.55125 -8.95,8.2175 0,4.5675 3.4375,8.22125 8.74249,8.22125 l 0.1025,0 c 5.5175,0 8.9475,-3.65375 8.9475,-8.22125 -0.10499,-4.66625 -3.43,-8.2175 -8.84249,-8.2175 z m 64.82749,43.21999 0,27.28 -15.81625,0 0,-25.45 c 0,-6.3925 -2.28374,-10.75624 -8.01,-10.75624 -4.37,0 -6.96625,2.93875 -8.11249,5.78374 -0.41626,1.01625 -0.52376,2.42875 -0.52376,3.855 l 0,26.5675 -15.8175,0 c 0,0 0.2125,-43.10624 0,-47.56999 l 15.8175,0 0,6.74125 -0.105,0.15625 0.105,0 0,-0.15625 c 2.1025,-3.235 5.85126,-7.8575 14.25375,-7.8575 10.4075,0 18.20875,6.7975 18.20875,21.40624"
         id="path3852"
         style="fill:#f1f2f2;fill-opacity:1;fill-rule:nonzero;stroke:none" />
    </g>
  </g>
</svg>
</g></g></svg>